<svg width="892.267" height="293.824" viewBox="0 0 236.079 77.741" xml:space="preserve" xmlns="http://www.w3.org/2000/svg"><defs><linearGradient id="a"><stop style="stop-color:#2e2e2e;stop-opacity:1" offset="0"/><stop style="stop-color:#000;stop-opacity:0" offset="1"/></linearGradient></defs><path style="opacity:1;fill:#d4c0a2;fill-opacity:1;stroke-width:.162134;stroke-linecap:round;stroke-linejoin:round;paint-order:fill markers stroke" d="M4827.966 87.973c.513-2.214 3.067-3.011 5.128-3.025 1.67-.012 3.037 1.108 4.744 1.093 1.27-.011 2.84-.37 3.838.497.937.81.652 2.707-.515 3.216-.833.363-1.985.04-2.901-.21-1.496-.408-3.016-.368-4.459.242-1.726.73-3.985.88-5.252-.078-.638-.483-.703-1.218-.583-1.735zM4854.23 87.973c.512-2.214 3.066-3.011 5.127-3.025 1.67-.012 3.038 1.108 4.745 1.093 1.27-.011 2.84-.37 3.837.497.938.81.653 2.707-.515 3.216-.833.363-1.985.04-2.901-.21-1.495-.408-3.016-.368-4.458.242-1.726.73-3.985.88-5.252-.078-.639-.483-.704-1.218-.584-1.735zM4839.638 94.88c.513 2.214 3.066 3.01 5.128 3.025 1.67.01 3.037-1.109 4.744-1.094 1.27.011 2.84.37 3.837-.497.938-.81.653-2.707-.514-3.216-.834-.363-1.985-.039-2.901.21-1.496.408-3.016.368-4.459-.242-1.726-.73-3.985-.88-5.252.078-.638.484-.703 1.218-.583 1.735zM4857.545 123.45c-.513 2.214-3.067 3.011-5.128 3.025-1.67.011-3.038-1.108-4.744-1.093-1.27.01-2.84.37-3.838-.497-.938-.81-.653-2.708.515-3.216.833-.363 1.985-.04 2.901.21 1.495.408 3.016.368 4.458-.242 1.726-.73 3.986-.88 5.252.078.639.483.704 1.217.584 1.735zM4879.529 119.736c.357 2.245-1.709 3.944-3.613 4.732-1.543.639-3.232.116-4.807.772-1.173.488-2.492 1.412-3.743.983-1.174-.398-1.623-2.263-.733-3.173.636-.65 1.824-.783 2.767-.897 1.54-.185 2.933-.793 4.04-1.901 1.325-1.326 3.361-2.315 4.896-1.904.773.208 1.11.864 1.193 1.388zM4834.45 124.366c-.794 2.13-3.429 2.592-5.475 2.341-1.657-.204-2.87-1.49-4.564-1.695-1.26-.152-2.864.002-3.741-.986-.826-.925-.3-2.77.924-3.124.873-.252 1.973.217 2.85.582 1.43.597 2.943.753 4.452.334 1.806-.502 4.065-.36 5.198.753.571.561.541 1.298.356 1.795zM4846.265 116.52c-.513-2.215-3.067-3.012-5.128-3.026-1.67-.011-3.037 1.108-4.744 1.093-1.27-.01-2.84-.37-3.838.497-.938.811-.653 2.708.515 3.216.833.364 1.985.04 2.901-.21 1.495-.407 3.016-.368 4.459.242 1.725.73 3.984.88 5.251-.078.639-.483.704-1.217.584-1.735zM4812.257 123.598c-.279 2.256-2.735 3.315-4.783 3.544-1.66.186-3.137-.785-4.833-.591-1.262.143-2.786.665-3.868-.094-1.018-.708-.932-2.624.176-3.252.79-.448 1.97-.246 2.907-.094 1.53.25 3.038.05 4.409-.707 1.64-.906 3.87-1.291 5.23-.47.686.413.828 1.137.762 1.664zM4822.487 115.902c-.703-2.162-3.316-2.734-5.37-2.57-1.665.134-2.93 1.368-4.632 1.502-1.266.099-2.862-.123-3.78.828-.864.889-.415 2.754.792 3.16.861.289 1.98-.134 2.872-.462 1.454-.536 2.972-.628 4.462-.146 1.783.577 4.047.531 5.226-.534.594-.536.595-1.274.43-1.778zM4800.739 117.556c-.184-2.266-2.593-3.428-4.63-3.744-1.65-.255-3.167.652-4.854.388-1.254-.197-2.755-.782-3.868-.07-1.046.665-1.042 2.583.039 3.257.77.481 1.957.329 2.9.216 1.539-.184 3.037.078 4.375.892 1.6.975 3.813 1.454 5.207.691.702-.384.874-1.101.831-1.63zM4792.103 123.292c-.279 2.256-2.735 3.316-4.784 3.545-1.66.186-3.136-.785-4.832-.592-1.262.144-2.786.665-3.869-.093-1.017-.708-.932-2.625.176-3.252.791-.449 1.97-.247 2.908-.094 1.53.249 3.037.05 4.408-.707 1.64-.906 3.871-1.292 5.232-.47.685.413.826 1.137.761 1.663zM4781.631 116.302c-.483-2.22-3.026-3.052-5.087-3.093-1.67-.034-3.052 1.067-4.758 1.03-1.27-.028-2.835-.409-3.844.445-.948.799-.689 2.699.472 3.223.828.374 1.984.066 2.904-.172 1.5-.387 3.02-.327 4.454.302 1.716.753 3.973.934 5.253-.008.645-.474.72-1.208.606-1.727zM4873.302 88.238c1.858-1.31 4.293-.204 5.84 1.16 1.253 1.103 1.527 2.85 2.81 3.975.954.838 2.365 1.616 2.53 2.927.16 1.23-1.316 2.454-2.526 2.056-.863-.284-1.506-1.293-2.023-2.09-.844-1.3-2.004-2.283-3.487-2.789-1.773-.605-3.558-1.998-3.865-3.557-.154-.785.287-1.376.721-1.682zM4885.107 101.765c2.153.732 2.69 3.352 2.498 5.405-.155 1.662-1.406 2.911-1.561 4.611-.116 1.265.084 2.863-.878 3.769-.9.852-2.76.378-3.149-.834-.278-.865.16-1.979.5-2.866.554-1.447.667-2.963.204-4.46-.554-1.79-.478-4.053.602-5.218.545-.587 1.282-.578 1.784-.407zM4862.167 94.157c-.235 2.26 1.921 3.844 3.866 4.527 1.575.553 3.233-.061 4.842.508 1.198.423 2.566 1.273 3.79.777 1.151-.462 1.498-2.349.559-3.21-.67-.613-1.864-.681-2.812-.743-1.547-.1-2.972-.632-4.138-1.678-1.395-1.25-3.482-2.127-4.992-1.632-.76.25-1.06.923-1.115 1.45zM4878.324 103.342c-2.251-.313-3.909 1.787-4.66 3.707-.607 1.555-.05 3.233-.675 4.821-.464 1.182-1.362 2.52-.908 3.762.421 1.165 2.294 1.578 3.187.67.637-.65.746-1.84.841-2.785.154-1.542.735-2.948 1.821-4.077 1.299-1.35 2.248-3.407 1.805-4.933-.222-.769-.885-1.092-1.41-1.165zM4868.911 115.437c-.939-2.07-3.599-2.35-5.623-1.957-1.639.317-2.76 1.684-4.436 2.005-1.247.24-2.857.196-3.665 1.242-.76.98-.107 2.783 1.138 3.052.888.192 1.954-.352 2.803-.777 1.386-.694 2.884-.954 4.419-.64 1.835.377 4.08.08 5.134-1.11.53-.599.45-1.332.23-1.815zM4815.904 97.559c1.144 1.964 3.82 1.972 5.793 1.377 1.598-.482 2.575-1.956 4.21-2.445 1.216-.365 2.823-.484 3.52-1.608.656-1.051-.176-2.78-1.442-2.92-.903-.102-1.907.548-2.71 1.057-1.308.83-2.772 1.241-4.33 1.084-1.865-.188-4.068.335-4.995 1.625-.468.65-.313 1.37-.045 1.83zM4808.85 95.252c-.667-2.173 1.142-4.143 2.918-5.19 1.438-.847 3.183-.565 4.652-1.435 1.093-.646 2.27-1.745 3.569-1.495 1.218.23 1.923 2.014 1.168 3.04-.538.732-1.697 1.03-2.615 1.274-1.498.398-2.793 1.195-3.735 2.446-1.126 1.498-3.005 2.762-4.582 2.568-.794-.097-1.219-.7-1.375-1.208zM4788.44 87.87c1.644-1.569 4.216-.833 5.947.286 1.402.908 1.93 2.594 3.365 3.519 1.068.687 2.578 1.249 2.935 2.521.339 1.193-.94 2.622-2.196 2.406-.895-.154-1.68-1.057-2.309-1.768-1.026-1.162-2.319-1.963-3.86-2.245-1.843-.337-3.814-1.451-4.347-2.948-.268-.754.081-1.404.465-1.77zM4778.817 92.865c-.11 2.27 2.13 3.734 4.109 4.31 1.603.465 3.224-.239 4.862.241 1.22.357 2.632 1.131 3.828.569 1.123-.525 1.366-2.427.382-3.235-.703-.577-1.9-.579-2.849-.589-1.55-.016-3.002-.468-4.223-1.449-1.462-1.173-3.594-1.934-5.074-1.357-.746.291-1.009.98-1.035 1.51zM4772.462 123.45c-.514 2.214-3.067 3.011-5.128 3.025-1.67.011-3.038-1.108-4.745-1.093-1.27.01-2.84.37-3.837-.497-.938-.81-.653-2.708.515-3.216.833-.363 1.985-.04 2.901.21 1.495.408 3.016.368 4.458-.242 1.726-.73 3.985-.88 5.252.078.639.483.703 1.217.584 1.735zM4712.072 124.198c-.513 2.214-3.067 3.011-5.128 3.025-1.67.012-3.038-1.108-4.744-1.093-1.27.011-2.84.37-3.838-.497-.938-.81-.653-2.707.515-3.216.833-.363 1.985-.04 2.901.21 1.495.408 3.016.368 4.458-.242 1.726-.73 3.986-.88 5.252.078.639.483.704 1.218.584 1.735z" transform="translate(-4651.562 -49.747)"/><path d="M4667.587 51.194V66.01q-.015 3.083-1.946 5.044-1.916 1.96-5.208 2.2l-.763.03q-3.577 0-5.702-1.93-2.126-1.931-2.156-5.314V51.194h2.844v14.757q0 2.364 1.302 3.681 1.302 1.302 3.712 1.302 2.44 0 3.726-1.302 1.302-1.302 1.302-3.666V51.194zm11.927 8.082q-.628-.105-1.361-.105-2.724 0-3.697 2.32v11.494h-2.769V56.79h2.694l.045 1.871q1.362-2.17 3.861-2.17.809 0 1.228.21zm16.254 5.792q0 3.711-1.707 5.971-1.706 2.245-4.58 2.245-3.067 0-4.743-2.17l-.135 1.87h-2.544V49.998h2.768v8.575q1.677-2.08 4.625-2.08t4.624 2.23q1.692 2.23 1.692 6.106zm-2.77-.315q0-2.828-1.092-4.37-1.092-1.541-3.143-1.541-2.738 0-3.936 2.544v7.004q1.273 2.544 3.966 2.544 1.99 0 3.098-1.541 1.108-1.542 1.108-4.64zm16.254 8.232q-.24-.48-.39-1.707-1.93 2.006-4.609 2.006-2.394 0-3.936-1.347-1.526-1.362-1.526-3.442 0-2.53 1.915-3.921 1.93-1.407 5.418-1.407h2.694v-1.272q0-1.452-.868-2.305-.868-.868-2.56-.868-1.48 0-2.484.748-1.002.749-1.002 1.811h-2.784q0-1.212.853-2.335.868-1.137 2.335-1.795 1.481-.659 3.247-.659 2.799 0 4.385 1.407 1.587 1.392 1.647 3.846v7.453q0 2.23.568 3.547v.24zm-4.595-2.11q1.302 0 2.47-.674 1.167-.674 1.69-1.751v-3.323h-2.17q-5.088 0-5.088 2.979 0 1.302.868 2.035.868.733 2.23.733zm13.889-14.084.09 2.036q1.855-2.335 4.849-2.335 5.133 0 5.178 5.792v10.7h-2.769V62.27q-.015-1.751-.808-2.59-.778-.837-2.44-.837-1.346 0-2.364.718-1.018.718-1.586 1.886v11.539h-2.77V56.79zm34.332 6.57h-9.145v9.624h-2.873v-21.79h13.5v2.364h-10.626v7.453h9.144zm3.442 1.377q0-2.38.928-4.28.943-1.9 2.604-2.933 1.676-1.033 3.816-1.033 3.308 0 5.343 2.29 2.05 2.29 2.05 6.091v.195q0 2.364-.913 4.25-.898 1.87-2.589 2.918-1.676 1.048-3.86 1.048-3.293 0-5.344-2.29-2.035-2.29-2.035-6.061zm2.783.33q0 2.693 1.243 4.325 1.257 1.631 3.352 1.631 2.11 0 3.352-1.646 1.243-1.661 1.243-4.64 0-2.664-1.273-4.31-1.257-1.661-3.352-1.661-2.05 0-3.307 1.631-1.258 1.631-1.258 4.67zm14.697-.33q0-2.38.928-4.28.943-1.9 2.604-2.933 1.676-1.033 3.816-1.033 3.308 0 5.343 2.29 2.05 2.29 2.05 6.091v.195q0 2.364-.912 4.25-.898 1.87-2.59 2.918-1.676 1.048-3.86 1.048-3.293 0-5.344-2.29-2.035-2.29-2.035-6.061zm2.784.33q0 2.693 1.242 4.325 1.257 1.631 3.352 1.631 2.11 0 3.353-1.646 1.242-1.661 1.242-4.64 0-2.664-1.272-4.31-1.257-1.661-3.353-1.661-2.05 0-3.307 1.631-1.257 1.631-1.257 4.67zm19.186-12.198v3.921h3.023v2.14h-3.023v10.043q0 .972.404 1.466.404.48 1.377.48.479 0 1.317-.18v2.245q-1.092.299-2.125.299-1.856 0-2.799-1.123-.943-1.122-.943-3.187V58.932h-2.948v-2.14h2.948V52.87zm31.025 20.115h-2.889l-10.97-16.792v16.792h-2.888v-21.79h2.888l11 16.866V51.194h2.859zm3.936-8.247q0-2.38.928-4.28.942-1.9 2.604-2.933 1.676-1.033 3.816-1.033 3.307 0 5.343 2.29 2.05 2.29 2.05 6.091v.195q0 2.364-.913 4.25-.898 1.87-2.589 2.918-1.676 1.048-3.861 1.048-3.293 0-5.343-2.29-2.035-2.29-2.035-6.061zm2.783.33q0 2.693 1.242 4.325 1.258 1.631 3.353 1.631 2.11 0 3.352-1.646 1.242-1.661 1.242-4.64 0-2.664-1.272-4.31-1.257-1.661-3.352-1.661-2.05 0-3.308 1.631-1.257 1.631-1.257 4.67zm19.187-12.198v3.921h3.023v2.14h-3.023v10.043q0 .972.404 1.466.404.48 1.377.48.479 0 1.317-.18v2.245q-1.093.299-2.126.299-1.855 0-2.798-1.123-.943-1.122-.943-3.187V58.932h-2.948v-2.14h2.948V52.87zm12.975 20.414q-3.292 0-5.358-2.155-2.065-2.17-2.065-5.792v-.509q0-2.41.913-4.295.928-1.9 2.574-2.963 1.661-1.078 3.592-1.078 3.158 0 4.909 2.08 1.75 2.08 1.75 5.957v1.152h-10.97q.06 2.395 1.393 3.876 1.347 1.467 3.412 1.467 1.466 0 2.484-.599 1.018-.598 1.781-1.586l1.691 1.317q-2.035 3.128-6.106 3.128zm-.344-14.517q-1.676 0-2.814 1.227-1.137 1.212-1.406 3.412h8.111v-.21q-.12-2.11-1.137-3.262-1.018-1.167-2.754-1.167zm19.291 9.922q0-1.122-.853-1.736-.838-.628-2.948-1.077-2.096-.45-3.338-1.078-1.227-.628-1.826-1.496-.583-.868-.583-2.066 0-1.99 1.676-3.367 1.691-1.377 4.31-1.377 2.754 0 4.46 1.422 1.721 1.422 1.721 3.637h-2.784q0-1.138-.972-1.961-.958-.823-2.425-.823-1.511 0-2.364.658-.854.659-.854 1.721 0 1.003.794 1.512.793.509 2.858.973 2.08.464 3.368 1.107 1.287.644 1.9 1.557.629.898.629 2.2 0 2.17-1.736 3.487-1.736 1.302-4.505 1.302-1.946 0-3.442-.689-1.497-.688-2.35-1.915-.838-1.242-.838-2.68h2.769q.075 1.393 1.107 2.216 1.048.808 2.754.808 1.571 0 2.514-.629.958-.643.958-1.706z" style="font-size:30.6503px;line-height:1.25;font-family:Roboto;-inkscape-font-specification:Roboto;fill:#d4c0a2;stroke:#d4c0a2;stroke-width:.5" aria-label="Urban Foot Notes" transform="translate(-4651.562 -49.747)"/><path style="opacity:1;fill:#d4c0a2;fill-opacity:1;stroke-width:.162134;stroke-linecap:round;stroke-linejoin:round;paint-order:fill markers stroke" d="M4703.537 117.76c-.209-2.263-2.63-3.399-4.67-3.692-1.654-.238-3.16.686-4.85.44-1.256-.183-2.763-.753-3.869-.028-1.039.676-1.014 2.593.074 3.256.776.473 1.961.308 2.903.185 1.537-.201 3.037.044 4.384.844 1.611.958 3.829 1.413 5.214.635.698-.392.862-1.11.813-1.64zM4796.583 101.355c.514 2.215 3.067 3.012 5.128 3.026 1.67.011 3.038-1.109 4.745-1.094 1.27.011 2.84.371 3.837-.496.938-.811.653-2.708-.515-3.217-.833-.363-1.985-.039-2.9.21-1.496.408-3.017.369-4.46-.242-1.725-.73-3.984-.88-5.251.079-.639.483-.703 1.217-.584 1.734zM4722.92 114.658c-1.143-1.965-3.818-1.973-5.792-1.378-1.598.482-2.575 1.956-4.21 2.445-1.216.365-2.823.485-3.52 1.608-.656 1.051.176 2.78 1.442 2.92.903.102 1.907-.548 2.71-1.057 1.308-.83 2.772-1.241 4.33-1.084 1.865.188 4.068-.335 4.995-1.625.468-.65.313-1.37.045-1.83zM4730.793 116.197c.667 2.173-1.141 4.144-2.917 5.19-1.439.848-3.184.566-4.653 1.435-1.093.647-2.27 1.746-3.568 1.496-1.218-.23-1.924-2.014-1.169-3.04.539-.732 1.697-1.03 2.615-1.274 1.498-.398 2.793-1.195 3.735-2.447 1.126-1.497 3.005-2.76 4.582-2.567.795.097 1.22.7 1.375 1.207zM4751.468 123.58c-1.644 1.569-4.216.833-5.947-.286-1.402-.908-1.93-2.594-3.365-3.519-1.068-.688-2.578-1.249-2.935-2.521-.339-1.193.94-2.622 2.196-2.406.895.154 1.68 1.057 2.309 1.768 1.026 1.162 2.319 1.963 3.86 2.245 1.843.337 3.814 1.451 4.347 2.948.268.754-.081 1.404-.465 1.77zM4761.297 117.354c-.11-2.27-2.48-3.51-4.506-3.892-1.641-.31-3.187.549-4.864.23-1.247-.238-2.728-.872-3.864-.196-1.067.63-1.125 2.547-.067 3.256.755.506 1.946.393 2.892.31 1.544-.134 3.033.177 4.344 1.034 1.568 1.026 3.764 1.578 5.181.86.715-.361.91-1.072.884-1.602zM4741.737 110.094c-.513-2.214-3.067-3.011-5.128-3.025-1.67-.011-3.037 1.108-4.744 1.093-1.27-.01-2.84-.37-3.838.497-.937.811-.652 2.708.515 3.216.833.364 1.985.04 2.901-.21 1.496-.407 3.016-.368 4.459.242 1.726.73 3.985.88 5.252-.078.638-.483.703-1.217.583-1.735zM4665.832 116.52c-.513-2.215-3.066-3.012-5.128-3.026-1.67-.011-3.037 1.108-4.744 1.093-1.27-.01-2.84-.37-3.837.497-.938.811-.653 2.708.515 3.216.833.364 1.984.04 2.9-.21 1.496-.407 3.016-.368 4.459.242 1.726.73 3.985.88 5.252-.078.638-.483.703-1.217.583-1.735zM4670.204 124.627c-.584 2.196-3.162 2.91-5.223 2.858-1.669-.043-3-1.206-4.706-1.247-1.27-.03-2.85.279-3.82-.62-.91-.84-.565-2.727.619-3.198.844-.336 1.985.025 2.893.304 1.481.456 3.002.465 4.463-.098 1.749-.674 4.012-.751 5.247.248.623.503.664 1.24.527 1.753zM4684.615 116.242c-.644-2.18-3.24-2.823-5.299-2.714-1.667.089-2.966 1.288-4.67 1.375-1.269.065-2.858-.2-3.802.725-.887.865-.49 2.742.706 3.18.854.312 1.984-.08 2.884-.384 1.468-.496 2.988-.547 4.465-.024 1.766.626 4.03.641 5.237-.391.609-.52.63-1.258.48-1.767zM4691.228 123.943c-.464 2.225-3 3.079-5.06 3.139-1.669.048-3.061-1.04-4.767-.988-1.27.04-2.831.434-3.848-.411-.955-.79-.713-2.692.443-3.227.825-.381 1.984-.083 2.906.146 1.503.374 3.023.3 4.451-.342 1.71-.768 3.965-.969 5.253-.039.649.47.73 1.202.622 1.722zM4769.095 87.973c.513-2.214 3.066-3.011 5.127-3.025 1.67-.012 3.038 1.108 4.745 1.093 1.27-.011 2.84-.37 3.837.497.938.81.653 2.707-.515 3.216-.833.363-1.984.04-2.9-.21-1.496-.408-3.016-.368-4.459.242-1.726.73-3.985.88-5.252-.078-.638-.483-.703-1.218-.583-1.735zM4745.514 87.36c.79-2.133 3.423-2.6 5.47-2.353 1.657.2 2.872 1.485 4.567 1.686 1.261.15 2.864-.008 3.744.979.827.923.304 2.768-.919 3.125-.872.255-1.973-.213-2.85-.576-1.432-.594-2.945-.747-4.454-.325-1.804.506-4.064.37-5.2-.742-.571-.56-.543-1.297-.358-1.795zM4719.649 87.973c.513-2.214 3.066-3.011 5.127-3.025 1.67-.012 3.038 1.108 4.745 1.093 1.27-.011 2.84-.37 3.837.497.938.81.653 2.707-.515 3.216-.833.363-1.984.04-2.9-.21-1.496-.408-3.017-.368-4.46.242-1.725.73-3.984.88-5.251-.078-.639-.483-.703-1.218-.584-1.735zM4757.917 94.877c.513 2.215 3.067 3.012 5.128 3.026 1.67.01 3.038-1.109 4.745-1.094 1.27.011 2.84.37 3.837-.497.938-.81.653-2.707-.515-3.216-.833-.363-1.985-.039-2.901.21-1.495.408-3.016.368-4.458-.242-1.726-.73-3.985-.88-5.252.078-.639.484-.704 1.218-.584 1.735zM4732.108 95.473c.696 2.164 3.307 2.745 5.362 2.587 1.665-.128 2.934-1.358 4.637-1.485 1.266-.095 2.86.133 3.782-.815.867-.886.425-2.752-.781-3.162-.86-.292-1.981.126-2.874.451-1.456.531-2.974.618-4.462.13-1.781-.583-4.045-.545-5.228.516-.595.535-.599 1.272-.436 1.778zM4707.491 94.88c.513 2.214 3.067 3.01 5.128 3.025 1.67.01 3.037-1.109 4.744-1.094 1.27.011 2.84.37 3.838-.497.937-.81.652-2.707-.515-3.216-.833-.363-1.985-.039-2.901.21-1.495.408-3.016.368-4.459-.242-1.725-.73-3.985-.88-5.252.078-.638.484-.703 1.218-.583 1.735zM4682.795 95.207c.513 2.214 3.066 3.011 5.127 3.025 1.67.011 3.038-1.108 4.745-1.093 1.27.01 2.84.37 3.837-.497.938-.81.653-2.708-.515-3.216-.833-.363-1.984-.04-2.9.21-1.496.408-3.016.368-4.46-.242-1.725-.73-3.984-.88-5.251.078-.638.483-.703 1.217-.583 1.735zM4694.737 87.415c.763-2.141 3.391-2.641 5.44-2.42 1.66.18 2.891 1.45 4.589 1.63 1.263.134 2.863-.044 3.755.932.839.913.339 2.764-.88 3.136-.868.266-1.975-.188-2.857-.54-1.439-.576-2.954-.71-4.457-.27-1.798.528-4.06.42-5.208-.678-.58-.553-.56-1.29-.382-1.79zM4670.014 87.334c.819-2.121 3.459-2.552 5.501-2.277 1.655.223 2.853 1.523 4.545 1.747 1.259.167 2.864.031 3.73 1.03.815.934.267 2.772-.96 3.112-.877.243-1.971-.24-2.844-.615-1.423-.613-2.934-.786-4.448-.385-1.811.481-4.07.314-5.19-.813-.564-.568-.525-1.304-.334-1.8zM4651.636 87.711c.624-2.186 3.214-2.853 5.273-2.763 1.668.072 2.978 1.26 4.684 1.33 1.268.053 2.855-.227 3.807.69.896.856.516 2.736-.676 3.186-.85.32-1.984-.061-2.887-.356-1.473-.483-2.993-.52-4.465.017-1.76.643-4.024.68-5.24-.342-.614-.514-.642-1.251-.496-1.762zM4659.348 95.696c.677 2.17 3.283 2.774 5.34 2.633 1.666-.114 2.946-1.333 4.65-1.446 1.266-.084 2.859.157 3.788-.783.875-.878.448-2.748-.754-3.168-.858-.3-1.982.11-2.877.427-1.46.518-2.98.593-4.464.092-1.776-.598-4.04-.58-5.231.472-.6.53-.61 1.266-.452 1.773z" transform="translate(-4651.562 -49.747)"/></svg>