<svg width="800.001" height="1035.001" viewBox="0 0 211.667 273.844" xml:space="preserve" xmlns:xlink="http://www.w3.org/1999/xlink" xmlns="http://www.w3.org/2000/svg">
  <a xlink:href="https://github.com/infinity-keys/ik-landing/blob/9b251d1bc8a65949c0bea4c0f15836f21f3bf380/api/src/services/ik/userProgress/userProgress.ts" transform="translate(-9344.501 -2523.555) scale(23.03037)" style="opacity:1">
    <g style="opacity:1">
      <path style="opacity:1;fill:#ddd;fill-opacity:1;stroke:#777;stroke-width:29.0686;stroke-linecap:round;stroke-linejoin:round;stroke-miterlimit:4;stroke-dasharray:none;stroke-opacity:1" d="M126.544 281.306v40.844c0 14.06 13.418 21.15 21.15 21.15h163.16c12.106 0 21.15-11.442 21.15-21.15v-35.858c16.785-22.772 31.383-55.725 31.383-79.613V79.208c0-47.667-67.297-45.79-67.297 0v35.924-66.455c0-47.084-67.297-46.42-67.297 0v66.455-86.984c0-49.664-67.297-51.184-67.297 0v83.138-195.445c0-43.406-67.297-42.644-67.297 0v244.155V89.45l-33.648 32.733c-29.078 28.287-22.358 62.347-5.58 80.724z" transform="matrix(.0102 0 0 .0102 408.283 114.364)" />
    </g>
  </a>
</svg>