<svg width="733.24" height="279.504" viewBox="0 0 194.003 73.952" xml:space="preserve" xmlns="http://www.w3.org/2000/svg"><path style="fill:#000;fill-opacity:1;stroke-width:.176389" d="M7.654 644.93c-.969-.111-.39-.582 2.083-1.696 1.358-.612 2.866-1.33 3.351-1.595.815-.445 1.05-.484 3.093-.515 1.76-.026 2.298-.094 2.64-.334.546-.382 1.135-.403.994-.037-.084.22.115.265 1.194.265 1.566 0 2.432.155 2.353.42-.032.109-.716.53-1.522.936a85.628 85.628 0 0 0-3.077 1.656l-1.613.917-4.5.02c-2.476.01-4.724-.006-4.996-.037zm4.61-.649c.05-.048-.678-.088-1.616-.088-.99 0-1.705.072-1.705.172 0 .173 3.145.093 3.322-.084zm4.955.017c-.145-.14-2.73-.214-3.249-.094-.32.075.234.132 1.396.145 1.06.011 1.893-.012 1.853-.05zm-3.77-.649c.135-.217-2.755-.205-3.095.014-.18.115.258.166 1.366.159.896-.006 1.675-.084 1.73-.173zm4.889-.018c.12-.076-.655-.138-1.722-.138-1.357 0-1.86.053-1.676.177.303.202 3.068.171 3.398-.039zm-3.495-.695c.2-.183-.574-.197-2.24-.04-.655.063-1.19.18-1.19.262 0 .19 3.207-.017 3.43-.222zm4.683.022c.18-.116-.31-.172-1.543-.174-1.09-.002-1.808.068-1.808.174 0 .23 2.997.23 3.351 0zm-3.351-.697c0-.191-2.915-.15-3.11.044-.068.068.604.124 1.493.124.906 0 1.617-.074 1.617-.168zm4.674-.008c.07-.113-.498-.176-1.577-.176-1.006 0-1.686.07-1.686.176 0 .104.643.176 1.577.176.867 0 1.626-.079 1.686-.176zm-3.88-.528c.229-.098-.19-.147-1.195-.14-.85.004-1.59.078-1.642.162-.121.197 2.37.177 2.837-.022zm3.836-.13a10.112 10.112 0 0 0-1.5 0c-.412.037-.074.067.75.067.825 0 1.162-.03.75-.067zm.573 3.217a9.57 9.57 0 0 0-.661-.166c-.617-.136-.612-.301.02-.675.397-.234.75-.275 1.652-.191.68.064 1.51.02 2.038-.107l.89-.213-.426-.628c-.53-.783-.551-1.784-.059-2.87l.36-.793-.401-.325c-.841-.68-1.904-1.19-3.164-1.515-.77-.199-1.126-.352-.866-.373.412-.034.406-.044-.088-.155-.291-.065-.569-.07-.618-.01-.048.06-.226.16-.395.221-.524.193-.972 1.162-1.103 2.38-.082.773-.175 1.077-.273.902-.203-.364.06-2.147.392-2.653.15-.228.276-.485.281-.572.006-.086.116-.23.246-.32.159-.11.102-.126-.176-.047-.645.182-2.875-.09-2.727-.332.069-.111-.07-.075-.309.081-.532.349-.932 1.464-.792 2.212.057.306.297.842.534 1.191l.431.635h-.533c-.473 0-.582-.105-.954-.926-.365-.804-.398-1.04-.254-1.796.208-1.094.517-1.566 1.41-2.157.699-.462.747-.468 3.832-.47 2.767 0 3.252.043 4.24.387 2.051.714 2.696 1.314 4.176 3.884.662 1.148.853 1.651.853 2.247 0 1.021-.336 1.352-1.877 1.847-.698.224-1.388.543-1.533.71-.42.48-3.267.89-4.146.597zm5.237-2.199c.454-.123.86-.313.902-.424.042-.11-.211-.652-.562-1.203-1.17-1.84-1.96-1.772-2.1.18-.082 1.121.327 2.136.735 1.823.109-.084.57-.253 1.025-.376zm-1.463-4.064c-.899-.77-3.685-1.975-3.685-1.593 0 .078.269.193.597.255.782.146 2.612 1.065 3.02 1.516.176.194.358.315.405.268.046-.046-.105-.247-.337-.446zm41.707 5.509c-.135-.086-.192-.668-.166-1.717.042-1.73-.147-8.72-.319-11.818a521.71 521.71 0 0 1-.285-6.703c-.098-2.619-.22-5.357-.27-6.085-.177-2.551-.615-7.677-.692-8.114a27.111 27.111 0 0 1-.18-1.411c-.356-3.41-1.44-9.469-2.305-12.876-1.192-4.703-2.982-7.814-5.15-8.951-1.487-.78-2.673-1.018-4.981-.996-9.367-.011-20.663 5.389-23.235 10.802-1.792 3.772 1.565 9.014 4.606 12.952 2.476 3.052 2.834 3.506 2.901 3.68.124.321.4.133.294-.201-.064-.203-.032-.353.076-.353.104 0 .189-.12.189-.265 0-.147-.157-.264-.353-.264-.194 0-.353-.08-.353-.177 0-.255.394-.216.82.082.202.142.418.209.48.147.192-.192.121-.724-.11-.82-.12-.05.049-.044.377.013.463.08.579.047.515-.144-.044-.136-.254-.273-.464-.304-.448-.066-.488-.254-.121-.56.338-.28 1.13-.086 1.275.313.06.167.257.494.436.728.186.242.282.564.223.75-.077.242-.013.325.25.325.196 0 .408.085.472.188.186.302 1.52-.007 2.087-.483.46-.387.535-.4.808-.153.453.41.562.126.139-.36-.332-.382-.4-.398-.662-.162-.333.302-.704.348-.704.088 0-.097.066-.177.148-.177.081 0 .238-.198.349-.44.11-.243.326-.442.48-.442.315 0 1.316-1.026 1.316-1.35 0-.117-.159-.264-.353-.325-.194-.062-.353-.224-.353-.36 0-.182-.141-.22-.529-.143-.41.082-.529.043-.529-.175 0-.294-.663-.747-.837-.572-.056.056-.092.382-.079.726.016.41-.088.72-.3.902-.26.222-.298.401-.188.888.103.457.075.633-.111.704-.425.163-.778-.087-.778-.55 0-.328-.117-.473-.447-.556-.481-.12-.904-.77-.965-1.482-.064-.74-.018-.831.538-1.061.45-.186 1.05-.94 1.05-1.315 0-.105-.794-.015-1.61.181-.34.082-.662-.02-1.208-.38-.613-.406-1-.51-2.199-.59-.874-.059-1.577-.199-1.76-.351-.268-.222-.381-.213-.922.078-.527.285-.639.296-.777.077-.288-.456-.18-.598.945-1.237 3.117-1.772 6.32-2.65 9.653-2.648 2.745.003 5.045.454 7.756 1.523 1.463.577 4.623 2.798 5.888 4.14 1.17 1.24 2.694 3.402 3.417 4.847 1.797 3.595 2.477 9.165 1.628 13.335-.82 4.02-2.494 7.105-5.45 10.042-1.9 1.887-4.18 3.329-6.631 4.195-3.546 1.251-8.163 1.424-11.728.438-1.207-.334-3.528-1.28-3.528-1.438 0-.065.157-.216.35-.336.294-.183.563-.133 1.698.318.741.294 1.383.5 1.426.457.043-.043.003-.224-.089-.404-.327-.638-.564-1.601-.67-2.72a43.79 43.79 0 0 0-.185-1.662c-.16-1.092-.113-2.862.107-4.023.221-1.162.216-1.214-.174-1.628-.221-.236-.568-.479-.771-.54-.623-.189-1.163-.806-1.163-1.33 0-.27-.159-.895-.353-1.387-.425-1.08-.45-1.893-.07-2.312.365-.404.173-.754-.282-.51-.181.096-.442.176-.58.176-.296 0-1.008-.586-1.008-.83 0-.094-.194-.26-.431-.368-.387-.176-.414-.255-.266-.77.155-.542.118-.614-.672-1.313-.564-.498-.854-.659-.893-.493-.111.481-.37.231-.925-.897-.47-.956-.549-1.288-.478-2.023.05-.53.011-.903-.1-.94-.106-.036-.019-.296.202-.607.214-.3.388-.629.388-.732 0-.103.238-.458.53-.79.29-.331.528-.654.528-.717 0-.063.131-.41.29-.77.16-.361.313-.763.34-.893.089-.427.187-.389.828.325.388.433.536.706.382.706-.139 0-.252.066-.252.147 0 .08-.238.147-.53.147-.29 0-.55.033-.576.073-.027.04-.228.407-.447.814-.399.74-.4.74-.04.932.496.266.448.683-.104.893-.324.124-.535.116-.706-.026-.19-.157-.243-.138-.243.085 0 .157.1.287.22.289.148.002.133.06-.044.176-.235.154-.235.193 0 .347.227.15.22.174-.044.177-.254.002-.303.15-.28.84.022.644.045.706.1.265.087-.705.31-.731.65-.075.14.273.382.601.535.729.217.18.233.286.072.48-.166.2-.071.388.474.946.375.384.765.696.866.694.102-.002-.013-.159-.256-.349-.41-.32-.416-.345-.082-.349.232-.003.37-.13.386-.356.015-.194-.047-.353-.138-.353-.091 0-.166-.129-.166-.286 0-.597.483.113.583.856.055.407.224.831.376.943.396.29.34.471-.103.33-.329-.104-.364-.066-.272.288.059.225.032.499-.06.61-.113.135-.037.27.234.415.221.118.478.388.571.6.094.213.33.417.523.453.34.063.341.052.04-.282-.172-.192-.266-.47-.208-.62.057-.15.02-.325-.084-.39-.304-.187-.216-.496.106-.372.162.062.359.011.438-.114.223-.351.175-.538-.11-.43-.142.056-.306.024-.363-.068-.057-.093-.012-.17.101-.17.117 0 .159-.122.097-.283-.076-.198-.033-.255.143-.188a.272.272 0 0 0 .35-.157c.053-.139.206-.253.34-.253.133 0 .386-.159.561-.353.309-.34.308-.352-.016-.347-.185.003-.49.122-.679.265-.464.35-1.111.326-1.297-.05-.285-.579-.059-1.628.453-2.097.323-.296.409-.47.26-.532-.254-.105-.3-.59-.055-.59.09 0 .214.159.276.353.118.37.354.46.517.196.053-.086-.02-.254-.164-.373-.144-.119-.215-.29-.159-.381.132-.214.6.168.6.491 0 .445 1.113.178 1.168-.28.012-.1.032-.23.044-.286.013-.058.267.101.565.352.645.543 1.24.648.846.15-.228-.289-.217-.29.199-.018.25.163.417.42.385.59-.035.188.031.27.176.22.128-.046.213-.257.189-.47-.024-.214.03-.343.12-.287.09.056.214.02.275-.078.06-.099-.013-.18-.165-.18-.15 0-.274-.079-.274-.176 0-.097.079-.176.176-.176.097 0 .176-.08.176-.18 0-.104-.187-.133-.443-.068-.377.094-.425.062-.324-.217.065-.181.053-.27-.026-.198-.08.072-.24.051-.357-.046-.158-.13-.2-.062-.164.266.027.243-.03.49-.125.548-.189.117-5.328-5.07-7.044-7.181-8.159-10.028-4.139-15.117 5.661-20.627 3.878-2.181 9.312-3.752 15.578-4.916 6.804-1.264 11.223-1.517 13.026-.744.786.337 1.883 1.43 2.372 2.363.14.267.288 1.061.329 1.764.203 3.498.583 51.492.463 58.384-.018 1.005-.163 1.197-.663.88zm-20.522-5.526c2.744-.531 3.801-.96 5.057-2.052 2.937-2.556 4.487-6.072 4.753-10.783l.118-2.085-.617-.69c-.34-.379-.703-.854-.808-1.055-.308-.59-.222-1.878.154-2.286.181-.198.345-.516.363-.706.062-.666-.025-1.16-.188-1.06-.09.056-.214.021-.276-.078-.061-.1.004-.225.144-.279.22-.084.222-.21.012-.925-.347-1.175-1.942-4.257-3.163-6.109-.962-1.46-1.424-1.969-3.34-3.69-.799-.716-1.123-.616-.82.254.266.763.257.826-.165 1.052-.3.16-.47.113-.976-.272-.874-.667-1.319-1.181-1.29-1.492.013-.15.006-.33-.018-.403a3.187 3.187 0 0 1-.152-.757c-.024-.294-1.895-1.205-3.181-1.549-.457-.122-.81-.33-.855-.504-.043-.163-.174-.334-.292-.379-.381-.146-1.188.096-1.298.39-.059.157-.231.382-.383.5-.169.132-.194.217-.065.22a.403.403 0 0 0 .319-.17c.172-.279 1.5-.221 1.5.065 0 .143.27.285.66.348.86.137 2.322.847 2.331 1.13.004.13-.213.22-.522.22-.737 0-.663.29.111.434.448.085.585.176.455.306a.439.439 0 0 0-.093.429c.056.144-.021.243-.19.243-.156 0-.283-.08-.283-.176 0-.097-.327-.177-.726-.177-.652 0-.717-.038-.63-.372.151-.574-.155-1.16-.655-1.255-.631-.12-.697.029-.188.429.437.343.63 1.375.258 1.375a.177.177 0 0 1-.176-.177c0-.097-.119-.176-.264-.176-.146 0-.265.071-.265.159 0 .087-.277.322-.615.521-.447.264-.587.45-.512.68.316.978.487 1.259.88 1.438.238.108.513.377.609.596.154.35.162.334.071-.121-.082-.41-.018-.585.305-.83.35-.267.378-.361.192-.663-.137-.222-.153-.392-.045-.46.096-.058.173-.26.173-.449 0-.396.098-.413.856-.148.305.106.555.304.555.44 0 .137.08.248.177.248.097 0 .176-.08.176-.177 0-.317.56-.184.649.155.047.181.323.505.611.718.44.325.49.432.303.657-.185.222-.152.32.194.581l.416.314-.47.308c-.372.244-.523.264-.726.095-.33-.273-.717-.065-.458.247.101.122.131.273.068.337-.064.064.016.116.178.116.531 0 .31.943-.297 1.268-.206.11-.77.23-1.254.269-.484.038-.922.135-.973.216-.051.08-.252.177-.446.213-.204.038-.376.233-.409.461-.03.218-.16.395-.286.395-.132 0-.23.202-.23.472 0 .474-.437.94-.881.94-.132 0-.474.12-.76.269-.569.294-.707.953-.283 1.35.256.239.18.911-.084.748-.088-.054-.122-.159-.077-.232.045-.073-.088-.127-.295-.12-.293.01-.407-.124-.506-.596-.156-.747-.614-1.11-1.228-.976-.301.066-.54.007-.687-.171-.39-.47-1.204-.334-1.78.296-.515.563-.697 1.418-.348 1.633.094.058.408-.016.697-.166.632-.327 1.601-.36 1.601-.055 0 .12-.32.51-.712.868-.579.529-.692.733-.604 1.086.082.325.013.503-.272.703-.25.174-.361.41-.323.681.051.359.141.406.674.352.34-.034.796-.242 1.02-.466.421-.422 1.578-.677 1.906-.422.107.084.278.059.394-.057.112-.112.263-.146.334-.074.072.072.016.2-.124.287-.14.087-.217.182-.171.211.69.446.918.504 1.169.296.211-.176.293-.172.41.018a.61.61 0 0 1 .056.474c-.057.148.04.236.26.236.192 0 .45.12.572.268.156.188.394.236.8.16.837-.157 1.21.022 1.556.745.303.636.301.645-.145 1.11-.478.5-.56.716-.274.716.097 0 .177-.12.177-.265 0-.145.122-.264.271-.264.49 0 1.707.725 1.798 1.072.07.269.248.339.862.339.52 0 .881.108 1.104.33.182.182.559.407.838.5.412.136.517.282.56.785.047.554-.025.67-.706 1.133-1.014.688-1.187.931-1.194 1.672-.009 1.008-.853 1.753-1.984 1.753-.931 0-2.154 1.076-2.015 1.773.116.578-.156.873-.804.873-.523 0-.62.156-.298.479.238.237-.289 1.037-.77 1.168-.17.046-.308.244-.308.439s-.093.385-.206.423c-.15.05-.156.21-.025.588.1.285.118.678.042.872-.118.299-.14.305-.151.044-.007-.17-.097-.309-.201-.309-.11 0-.14-.15-.074-.36.063-.2.028-.467-.078-.595-.143-.173-.124-.29.076-.456.219-.182.227-.274.046-.497-.188-.232-.175-.256.086-.159.26.098.309.01.309-.563 0-.516.08-.7.33-.766.269-.07.323-.231.288-.85-.052-.917.255-1.333.777-1.054.454.243.545.234.545-.059 0-.134.16-.286.358-.338.197-.051.335-.196.308-.32-.027-.126.07-.232.213-.237.341-.01.445-.569.169-.902-.12-.143-.155-.318-.079-.389.076-.07.173-.028.216.093.093.26 1.108.3 1.108.044 0-.097.08-.176.176-.176.097 0 .177.119.177.264 0 .146.088.265.195.265.107 0 .15-.12.094-.265-.062-.16-.001-.264.152-.264.16 0 .213.104.145.282-.08.207-.02.266.22.22.195-.038.397-.304.498-.659.145-.503.118-.635-.17-.855-.323-.246-.318-.253.1-.133.36.103.401.084.22-.106-.293-.308-.28-.525.027-.408.136.053.294.019.352-.075.058-.093-.014-.215-.159-.27-.145-.056-.262-.204-.26-.328.001-.139.052-.158.132-.05.208.284.57.288.57.006 0-.158.104-.22.267-.156.193.074.236.021.154-.192-.063-.162-.222-.253-.355-.202-.133.051-.242.016-.242-.078 0-.261.377-.204.725.11.171.156.395.23.499.167.29-.18.22-.447-.122-.46-.263-.011-.257-.035.045-.162.312-.132.288-.163-.216-.273-.327-.072-.612-.265-.673-.456-.061-.193-.267-.33-.49-.329-.307.002-.332.036-.126.167.143.09.21.214.148.276-.144.143-.848-.228-.848-.446 0-.091-.12-.12-.265-.063-.145.055-.264.212-.264.347 0 .284-.281.328-.441.07-.06-.098-.025-.177.077-.177a.187.187 0 0 0 .187-.187c0-.103-.08-.138-.176-.078-.097.06-.177-.015-.177-.166 0-.291-.458-.386-.558-.116-.033.088-.161.048-.286-.088-.192-.208-.14-.247.323-.247.314 0 .524-.082.488-.19-.076-.225-.118-.228-1.034-.073-.469.079-.799.045-.975-.101-.201-.168-.315-.172-.47-.017-.325.325-.485.24-.446-.237.034-.413.313-.648.313-.264 0 .376.3.148.581-.441.216-.452.236-.621.077-.631-.17-.011-.169-.034.003-.103.121-.05.22-.206.22-.35 0-.143-.07-.216-.157-.162-.087.053-.204-.021-.26-.166-.055-.145-.202-.258-.327-.25-.181.011-.181.032.002.105.181.073.183.146.012.353-.138.165-.153.304-.043.38.225.154.273.912.057.912-.091 0-.165-.198-.165-.441 0-.242-.085-.44-.189-.44-.108 0-.14-.151-.076-.354.135-.425-.05-.448-.586-.072-.405.283-.913.231-.913-.093 0-.097.119-.13.264-.075.362.139.334-.11-.044-.396-.411-.313-.585-.305-.46.02.073.192.022.236-.182.158-.156-.06-.284-.228-.284-.373 0-.171-.1-.226-.284-.156-.204.078-.255.033-.182-.157.113-.296-.155-.37-.328-.09a.41.41 0 0 1-.319.173c-.132-.002-.144-.05-.033-.132.307-.226.252-.495-.101-.495-.187 0-.34.067-.34.149 0 .082-.08.1-.178.039-.098-.06-.232.034-.298.21a1.344 1.344 0 0 1-.378.514c-.142.106-.202.285-.133.397.074.12.013.203-.15.203-.412 0-.331-.484.17-1.022.36-.388.392-.489.167-.536-.218-.047-.233-.112-.07-.31.247-.297.167-.308-.466-.068-.263.1-.427.232-.366.293.062.062-.048.224-.243.36-.195.137-.306.327-.246.424.06.096-.02.318-.179.493-.3.332-.494 1.6-.244 1.6.08 0 .144.162.144.359 0 .197.105.398.232.447.153.059.213.332.176.796-.046.58.029.786.414 1.143.298.277.589.398.794.333.21-.067.324-.015.324.146 0 .137.201.48.447.762.298.342.41.63.338.865-.535 1.75-.617 2.969-.193 2.871.117-.027.213.03.213.128 0 .097-.092.155-.205.13-.267-.062-.437.838-.231 1.222.088.164.116.41.064.547-.053.137.03.354.185.482.214.178.229.266.064.368-.172.106-.171.19.005.403.147.176.168.368.062.556-.164.295.177 1.994.44 2.19.074.054.134.254.134.444 0 .442 1.03.766 3.087.972 1.773.177 2.635.115 5.115-.364zm-7.295-3.6c.055-.145.132-.264.17-.264.039 0 .07.12.07.265 0 .145-.077.264-.171.264-.094 0-.125-.119-.07-.264zm-1.612-1.322c-.06-.097-.03-.176.067-.176s.226.079.286.176c.06.097.03.176-.068.176-.097 0-.225-.079-.285-.176zm3.175-1.587c.06-.097.188-.177.285-.177.097 0 .127.08.068.177-.06.097-.189.176-.286.176-.097 0-.127-.08-.067-.176zm1.5-.878c0-.239.313-.387.427-.202.054.088-.02.206-.164.262-.145.055-.264.029-.264-.06zm-4.506-.369c-.064-.103-.079-.226-.032-.272.046-.046.13.038.188.188.12.31.018.365-.156.084zm7.415-.87c-.06-.097-.03-.177.068-.177.097 0 .225.08.285.177.06.097.03.176-.067.176s-.226-.08-.286-.176zm-1.499-.265c-.18-.216-.168-.264.067-.264.157 0 .286.119.286.264 0 .146-.03.265-.067.265-.036 0-.165-.12-.286-.265zm-5.556-.264c.06-.097.188-.177.285-.177.097 0 .128.08.068.177-.06.097-.189.176-.286.176-.097 0-.127-.08-.067-.176zm6.438-.265c0-.145.077-.264.171-.264.094 0 .125.119.07.264-.057.146-.133.265-.172.265-.038 0-.069-.12-.069-.265zm-6.526-.264c0-.097.084-.177.187-.177.102 0 .137.08.077.176-.06.097-.144.177-.186.177-.043 0-.078-.08-.078-.177zm-.074-.682c-.076-.123-.09-.272-.032-.33.158-.158.33.075.245.33-.06.18-.102.18-.213 0zm3.745-.145c.127-.05.28-.044.338.014.059.059-.046.1-.232.093-.205-.008-.247-.05-.106-.107zm3.032-.035c0-.158.53-.431.634-.327.03.03-.1.152-.29.27-.19.12-.344.144-.344.057zm-2.382-.373c-.06-.097-.03-.177.068-.177.097 0 .225.08.285.177.06.097.03.176-.067.176s-.226-.08-.286-.176zm-2.59-.473c.127-.051.279-.045.338.013.058.059-.046.1-.232.093-.205-.008-.247-.05-.106-.107zm5.247-.181c-.095-.251-.075-.272.1-.099.12.12.174.262.12.317-.055.054-.153-.044-.22-.218zm.43-.228c0-.097.08-.177.176-.177a.177.177 0 0 1 0 .353.177.177 0 0 1-.176-.176zm-8.467-.353a.177.177 0 0 1 .353 0c0 .097-.08.176-.176.176a.177.177 0 0 1-.177-.176zm5.998-.176c0-.097.074-.177.166-.177.09 0 .215.08.275.177.06.097-.015.176-.166.176-.152 0-.275-.08-.275-.176zm-7.232-.439c0-.137.163-.187.44-.134.243.047.442.145.442.218 0 .074-.199.134-.441.134-.243 0-.441-.098-.441-.218zm6.173-.267c-.29-.187-.243-.21.507-.242.339-.015.479.05.422.198-.1.262-.558.283-.929.044zm-2.381-.705c.06-.097.144-.177.187-.177.043 0 .078.08.078.177 0 .097-.084.176-.187.176s-.138-.08-.078-.176zm-3.948-1.191c.053-.337-.04-.462-.18-.24-.125.194-.196.168-.357-.132-.179-.335-.157-.37.202-.333.221.024.46.123.532.22.188.256.164.617-.041.617-.097 0-.167-.06-.156-.132zm4.132-.208c-.056-.09-.02-.214.078-.275.098-.061.179.013.179.164 0 .31-.106.355-.257.11zm-1.154-.894c0-.097.084-.177.187-.177.102 0 .137.08.077.177-.06.097-.144.176-.186.176-.043 0-.078-.08-.078-.176zm4.762-1.048c0-.092.08-.215.177-.275.097-.06.176.014.176.166 0 .15-.08.275-.176.275-.097 0-.177-.075-.177-.166zm.377-.848c-.245-.457-.072-.983.278-.849.14.054.29.099.33.099.162 0 .06.48-.168.791-.233.32-.247.319-.44-.041zm.329-.398c0-.097-.035-.176-.078-.176s-.127.08-.187.176c-.06.097-.025.177.078.177.103 0 .187-.08.187-.177zm9.09.363c-.155-.251.042-.539.37-.539.155 0 .243.124.21.294-.069.354-.42.503-.58.245zm-10.11-1.343c-.215-.15-.391-.359-.391-.462 0-.127.079-.123.242.013.133.11.352.173.485.138.134-.034.18-.027.103.015-.076.042-.047.187.066.323.274.33-.016.315-.504-.027zm1.02.099c0-.097.08-.177.176-.177a.177.177 0 0 1 0 .353.177.177 0 0 1-.176-.176zm-5.38-.177c.06-.097.223-.176.363-.176.14 0 .254.08.254.176 0 .097-.163.177-.363.177-.2 0-.314-.08-.254-.177zm1.147-.273c0-.3.57-1.133.716-1.043.094.058.126.18.07.27-.056.09.141.164.438.164.297 0 .54.08.54.177 0 .097.119.176.264.176.146 0 .265.08.265.176 0 .247-.485.222-.569-.029-.052-.156-.209-.156-.658 0-.634.221-1.066.265-1.066.109zm-1.599-.252c-.248-.05-.753-.342-1.12-.648-.638-.529-.652-.561-.284-.678.27-.085.503-.013.77.238.212.199.716.414 1.121.479.866.138 1.14.536.438.635-.26.037-.676.025-.925-.026zm1.187-1.004c-.183-.183-.138-.764.059-.764.097 0 .176.073.176.162 0 .09.048.288.107.441.107.278-.119.385-.342.161zm15.146-1.168c-.076-.174-.088-.366-.028-.427.18-.179.324.073.241.42-.073.309-.082.309-.213.006zM39.81 603.095c0-.097.124-.177.275-.177.151 0 .226.08.166.177-.06.097-.184.176-.275.176-.091 0-.166-.08-.166-.176zm.379 31.728c-.37-.14-.45-.066-.315.288.09.232.151.24.357.051.212-.196.206-.245-.042-.34zm1.17-1.423c.417.079.45.055.253-.183-.493-.597-1.364-.358-.977.268.083.133.141.136.184.01.034-.102.277-.145.54-.095zm16.698-1.685c.04-.206.164-.545.275-.753.111-.208.156-.498.1-.645-.101-.264.232-.994.821-1.797.238-.325.263-.494.113-.774-.265-.496-.067-1.514.391-2.002.547-.582.338-1.019-.412-.86-.708.149-1.057.436-.53.436.207 0 .426-.08.486-.177.06-.097.184-.176.275-.176.284 0 .182.46-.174.782-.435.394-.655 1.604-.356 1.963.18.218.116.408-.363 1.074-.372.52-.576 1.003-.566 1.347.009.296-.1.763-.243 1.038-.142.274-.218.499-.17.499.05 0 .007.218-.093.485-.166.44-.157.46.096.21.153-.15.31-.443.35-.65zm-14.278-.75c.139-.225-.27-.225-.618 0-.215.138-.192.17.122.173.213 0 .436-.077.496-.174zm15.081-6.33c0-.274-.517-.592-.792-.487-.4.154-.795-.059-.795-.428 0-.332-.489-.699-.915-.687-.128.003-.026.182.226.397.251.215.51.538.575.72.085.236.24.305.556.244.248-.047.523.02.636.157.225.27.509.318.509.085zm-2.822-2.324c0-.2-.076-.317-.169-.26-.093.058-.124.222-.07.364.14.365.239.322.239-.104zm-.252-.695c.36 0 .31-.31-.082-.52-.25-.133-.391-.11-.56.092-.184.223-.18.261.026.217.17-.037.24.088.218.387-.02.255.005.31.057.132.05-.17.203-.308.341-.308zm-18.622-1.059a.177.177 0 0 0-.176-.176.177.177 0 0 0-.177.176.177.177 0 0 0 .353 0zm18.444-.662c-.31-.293-.32-.292-.213.015.063.178.114.412.114.52 0 .137.065.133.213-.015.166-.166.141-.28-.114-.52zm1.067-2.336a6.69 6.69 0 0 1 .35-.997c.136-.306.242-.782.236-1.058-.014-.586-.09-.44-.608 1.173-.17.533-.459 1.217-.64 1.52-.18.302-.325.62-.322.705.012.29.883-.899.984-1.343zm-26.505-.976c-.15-.39-.395-.312-.29.092.051.193.16.31.241.259.082-.05.104-.209.05-.351zm7.63-.868c-.063-.247-.227-.45-.366-.45-.21 0-.203.09.044.518.345.602.482.573.321-.068zm23.228.08c.1-.383-.14-.492-.29-.133-.061.146-.239.05-.525-.287-.413-.485-.478-.502-1.442-.381-.572.071-.943.192-.856.279.087.087.483.07.914-.04.735-.186.776-.174 1.233.36.549.638.836.699.966.202zm-24.682-.97c.056-.146.034-.265-.048-.265s-.248.12-.369.265c-.178.215-.17.264.048.264.147 0 .313-.119.369-.264zm3.508-.035c.073-.04.132-.434.132-.874 0-.652.066-.817.353-.892.194-.051.353-.163.353-.248 0-.237-.577-.176-.94.1-.245.185-.449.2-.838.065-.477-.166-.716-.498-.36-.498.086 0 .206-.139.265-.308.06-.17.156-.408.212-.53.057-.122-.012-.22-.156-.22-.142 0-.302.165-.354.366-.053.201-.248.406-.435.454-.249.066-.317.202-.257.516.045.236.132.436.194.447.061.01.39.042.729.07.82.066.854.086.44.264l-.352.151.353.018c.325.017.328.032.044.198-.325.189-.428.691-.141.691.092 0 .245-.138.34-.307.094-.17.228-.25.298-.18.164.164-.251.663-.553.663a.449.449 0 0 0-.346.184c-.104.17.659.072 1.02-.13zm17.419-.054c0-.097-.12-.176-.265-.176-.146 0-.265-.08-.265-.176a.177.177 0 0 0-.176-.177c-.493 0 .01.53.661.695.025.006.045-.069.045-.166zm1.122-.265c.264-.265.335-.442.54-1.366.06-.267.2-.485.311-.485.325 0 .849.555.849.899 0 .375.282.592.439.338.06-.098.044-.179-.037-.179-.082 0-.235-.23-.341-.511-.285-.754-.843-1-1.279-.564-.211.211-.307.482-.25.704.065.247-.072.527-.44.895-.303.303-.431.534-.296.534.131 0 .358-.12.504-.265zm1.686-.272c-.129-.08-.317-.092-.419-.028-.108.068-.056.142.124.177.17.034.315.155.323.27.008.126.051.113.11-.034.052-.133-.01-.306-.138-.385zm-.515-.355c0-.091-.08-.166-.177-.166-.097 0-.176.124-.176.275 0 .151.08.226.176.166.097-.06.177-.184.177-.275zm-2.823-.244c0-.14-.079-.303-.176-.363-.097-.06-.176.055-.176.254 0 .2.079.364.176.364.097 0 .176-.115.176-.255zm-26.105-.342c0-.037-.199-.106-.441-.152-.243-.047-.441-.016-.441.067 0 .084.198.152.44.152.243 0 .442-.03.442-.067zm26.54-1.167c.344 0 .506-.62.274-1.052-.127-.238-.37-.36-.715-.36-.61 0-.67-.176-.166-.49.296-.185.323-.286.16-.592-.109-.202-.159-.57-.112-.817.05-.264-.051-.673-.247-.994-.434-.711-.42-.862.061-.709.352.112.369.093.155-.164-.337-.406-.525-.362-.654.152a1.13 1.13 0 0 0 .145.838c.37.57.544 2.247.234 2.247-.324 0-.47.441-.226.684.109.11.383.198.609.198.627 0 .72.518.164.922-.266.194-.466.508-.462.725.006.348.03.339.27-.103.145-.267.374-.485.51-.485zm-17.456.352c.06-.097-.015-.176-.166-.176-.151 0-.275.08-.275.176 0 .097.075.177.166.177.091 0 .215-.08.275-.177zm-.013-1.078c-.177-.288-.428-.16-.428.218 0 .312.044.338.262.156.145-.12.22-.288.166-.374zm-.605-.95c-.12-.146-.299-.265-.396-.265-.098 0-.079.117.044.265.12.145.299.265.396.265.098 0 .079-.117-.044-.265zm16.326-.22c.595-.475.804-1.137.431-1.368-.097-.06-.176-.302-.176-.54 0-.236-.067-.43-.148-.43-.082 0-.244-.21-.361-.468-.344-.753-.552-.268-.623 1.451-.086 2.078-.067 2.107.877 1.354zm-.706-.353c.074-.267.12-.922.103-1.456l-.031-.97.352.441c.194.243.355.615.357.828.002.212.084.436.182.496.17.105-.718 1.146-.978 1.146-.066 0-.06-.219.015-.485zm-23.028.21c0-.14-.074-.254-.165-.254-.091 0-.154.153-.14.34.029.385.305.307.305-.086zm22.299-.714c.425-.163.333-.384-.124-.296-.374.071-.398.026-.334-.642.068-.712.262-.925.454-.499.055.122.08.062.057-.132-.024-.194-.16-.353-.304-.353-.177 0-.3.278-.384.871-.162 1.13-.05 1.314.635 1.05zm-6.686-2.583c-.096-.74-.232-1.023-.678-1.41-.714-.616-3.73-2.169-4.493-2.312-.86-.162-.53.153.446.423.463.128 1.358.494 1.989.813l1.146.579.031.843c.027.737.115.916.69 1.417.364.315.734.573.824.573.095 0 .114-.39.045-.926zm4.115.054c.076-.537-.44-.986-.796-.691-.25.208-.318.892-.11 1.1.274.273.846.015.906-.41zm-.785-.113c.059-.153.107-.312.107-.352 0-.041.08-.074.177-.074.097 0 .176.159.176.353 0 .206-.118.352-.284.352-.186 0-.246-.096-.176-.279zm5.006-.217c.041-.125-.037-.168-.197-.107-.192.074-.282-.036-.323-.396-.062-.534-.675-.84-.675-.336 0 .152-.063.277-.14.277-.25 0-.565-.414-.565-.74 0-.175-.092-.318-.204-.318-.32 0-1.384-.874-1.384-1.137 0-.13-.113-.28-.251-.333-.565-.217.216 1.022.852 1.352.349.18.634.425.634.543 0 .118.228.432.506.699.487.467.509.471.6.121.14-.535.422-.442.546.181.105.525.453.638.6.194zm-12.484-.386c0-.097-.218-.168-.485-.158l-.485.017.441.141c.243.078.461.15.485.16.025.01.044-.063.044-.16zm4.7-.837a3.42 3.42 0 0 1 .366-.868c.552-.853-.552-2.714-1.768-2.98-.638-.14-.85.043-.23.199.609.152 1.388.903 1.678 1.614.205.502.189.654-.14 1.334-.407.84-.465 1.186-.2 1.186.096 0 .228-.219.293-.485zm-8.14-.008c.504-.143.706-.41.712-.942.004-.37-.074-.46-.388-.44-.372.021-.379.046-.124.435.313.477.333.444-.45.71-.53.178-.652.16-.982-.15-.208-.196-.473-.355-.59-.355-.116 0 .048.236.365.524.338.308.685.482.84.421.146-.057.424-.148.618-.203zm2.911-.464c-.97-.503-1.94-.737-1.94-.469 0 .105.226.19.502.19.278 0 .644.158.82.354.194.213.536.349.866.344.543-.008.54-.01-.248-.42zm-3.176-.097c.384-.243.05-.47-.88-.598-.786-.107-.79-.105-.31.16.267.147.486.345.486.439 0 .216.361.215.704-.001zm-2.115-.478c0-.225.653-.505 1.014-.436.193.037.308-.312.24-.727-.013-.076.097-.184.243-.24.147-.056.266-.182.266-.28 0-.108-.468-.15-1.202-.109-.913.052-1.497.211-2.425.663-.673.328-1.245.612-1.271.633-.17.13.232.605.548.65.98.14 2.587.044 2.587-.154zm13.934-1.114c0-.194-.03-.353-.067-.353-.038 0-.11.159-.16.353-.051.194-.02.352.067.352.088 0 .16-.158.16-.352zm-.673-.391c-.127-.127-.209-.137-.209-.027 0 .236.209.444.327.326.05-.05-.003-.185-.118-.3zm-9.059-.647c.08-.55.58-.683 2.456-.659 1.697.022 2.182-.133.882-.281-1.101-.126-2.691-.022-3.114.205-.203.109-.37.338-.37.509 0 .171-.099.416-.22.545-.178.188-.17.218.044.154.146-.044.29-.257.322-.473zm-.68-.009c.274-.514.221-.717-.188-.717-.409 0-1.394.526-1.394.744 0 .22.173.164.732-.234.589-.42.863-.316.538.203-.12.194-.14.345-.043.345.094 0 .254-.153.354-.34zM11.5 638.53c-1.012-.772-3.312-2.27-4.851-3.158-6.603-3.815-8.916-6.802-8.308-10.728.308-1.987 1.319-3.761 3.141-5.514 2.608-2.51 4.814-3.77 4.814-2.75 0 .133-.682.79-1.515 1.46-1.784 1.434-3.229 3.133-3.898 4.585-.392.848-.494 1.361-.553 2.754-.068 1.619-.042 1.776.472 2.874.299.639.834 1.516 1.189 1.95 1.624 1.982 5.917 3.986 9.601 4.483a47.2 47.2 0 0 1 1.892.283c.418.086.556.428.173.428-.123 0-.517.2-.876.443-.46.313-.707.648-.84 1.14-.18.67-.102 1.015.49 2.165.143.279-.254.102-.931-.415zm17.468-.819c-.967-.059-1.505-.26-1.505-.56 0-.065.507-.086 1.127-.047.66.042 1.264-.01 1.456-.127.257-.157-.015-.192-1.26-.163-1.54.035-1.616.018-2.51-.57-.508-.333-.899-.685-.869-.782.03-.097.499-.39 1.042-.652.968-.467 1.06-.477 4.572-.495 4.494-.024 4.203-.04 4.203.22 0 .25-.74.728-3.22 2.08-.945.515-1.719 1.002-1.719 1.082 0 .08-.06.13-.132.113-.073-.019-.606-.063-1.185-.099zm2.127-1.325c.072-.072-.482-.13-1.232-.13s-1.326.059-1.28.132c.105.171 2.34.17 2.512-.001zm-3.057-.608a3.133 3.133 0 0 0-.881-.002c-.269.041-.091.075.394.077.485 0 .704-.032.487-.074zm3.526-.005a10.112 10.112 0 0 0-1.5 0c-.412.038-.074.068.75.068.825 0 1.162-.03.75-.068zm1.543-.508c0-.037-.615-.055-1.367-.04-1.32.029-1.334.033-.397.133.921.098 1.764.054 1.764-.093zm-5.24-.086c-.139-.14-.286-.141-.52-.005-.285.166-.261.19.195.194.38.004.468-.047.326-.189zm1.318.073a1.936 1.936 0 0 0-.706-.004c-.22.043-.081.079.307.08.388.003.567-.032.399-.076zm.791-.348a.681.681 0 0 0-.44 0c-.122.049-.023.089.22.089.242 0 .342-.04.22-.09zm2.649-.007a3.137 3.137 0 0 0-.882-.002c-.268.04-.091.075.394.076.485.001.705-.032.488-.074zm-4.677-2.49c-.68-.078-2.368-2.677-3.318-5.108-1.1-2.813-1.451-4.881-1.339-7.888.15-3.978 1.41-7.693 3.65-10.76.937-1.283 1.175-1.451 1.536-1.09.27.27.26.326-.162.779-2.661 2.86-4.445 8.309-4.115 12.57.297 3.85 1.488 7.32 3.458 10.08.486.681.859 1.29.829 1.356-.03.064-.272.092-.539.062zm-7.451-7.991c-1.325-1.466-4.19-4.06-7.092-6.42-5.38-4.495-15.566-11.797-15.573-19.131-.004-4.895 4.372-9.929 12.887-14.344 14.752-7.65 42.72-13.445 87.564-13.445 9.573 0 12.51-.074 24.783.454 45.595 2.318 68.351 13.932 68.351 24.682 0 9.267-13.576 20.98-40.13 24.513-1.018.107-2.11.227-2.425.266-.532.068-.573.036-.573-.442 0-.574-.043-.556 2.117-.882 15.412-2.767 34.574-12.798 34.72-22.487.114-7.538-15.727-14.973-25.107-17.946-3.957-1.243-7.157-1.996-12.612-2.968l-3.88-.693c-1.63-.293-5.448-.88-6.23-.958a527.277 527.277 0 0 1-7.529-.801c-1.783-.215-7.523-.791-10.495-1.053-2.624-.232-10.746-.535-16.492-.616-6.6-.092-17.373.201-25.841.705-6.478.385-6.894.52-9.172.701-34.663 2.772-63.257 14.796-63.257 24.683 0 2.741 2.013 5.607 4.357 6.84 3.839 2.019 10.582 2.394 15.498.823 1.438-.46 2.116-.639 2.009-.352-.032.086-.48.488-.994.893-1.621 1.276-3.509 4.238-4.333 6.799-.737 2.29-1.18 6.814-.843 8.603.106.56.39 1.51.632 2.108.242.6.414 1.115.383 1.147-.032.031-.357-.274-.723-.68zm11.023.057c0-.183.382-.565.564-.565.078 0 .141.159.141.353 0 .235-.117.353-.353.353-.194 0-.352-.064-.352-.141zm-.618-7.091c-.06-.097-.025-.177.078-.177.103 0 .187.08.187.177 0 .097-.035.176-.078.176s-.127-.08-.187-.176zm.441-.988c0-.14.22-.21.6-.19.715.037.676.224-.068.333-.35.052-.532.002-.532-.143zm-.529-.6c0-.097.084-.176.187-.176s.138.08.078.176c-.06.097-.144.177-.187.177-.043 0-.078-.08-.078-.177zm1.666-.368c-.054-.089.064-.16.264-.16s.363-.085.363-.188c0-.102.087-.133.192-.068.137.085.137.173.002.309-.25.25-.696.308-.82.107zm2.513-.803c-.187-.188.048-.408.324-.302.142.055.214.17.16.257-.114.185-.324.205-.484.045zm.495-.769c.06-.097.144-.176.187-.176.043 0 .078.08.078.176 0 .097-.084.176-.187.176-.102 0-.137-.079-.078-.176zm-1.356-.826c.128-.051.28-.045.339.014.058.059-.046.1-.232.093-.205-.008-.247-.05-.107-.107zm-3.67-.659a.28.28 0 0 1 .279-.279c.153 0 .248.094.21.21-.11.327-.49.38-.49.07zm2.116.084c0-.091.08-.215.176-.275.097-.06.177.015.177.166 0 .152-.08.275-.177.275-.097 0-.176-.074-.176-.166zm1.411-.186c0-.097.12-.177.265-.177.145 0 .264.08.264.177 0 .097-.119.176-.264.176-.146 0-.265-.08-.265-.176zm6.977-.305a.467.467 0 0 1 .099-.475c.155-.142.18-.112.1.118-.134.378.11.404.409.044.12-.145.329-.264.462-.264.434 0 .258.28-.359.574-.553.264-.611.264-.711.003zm-7.859-.754a.177.177 0 0 1 .353 0c0 .097-.08.177-.176.177a.177.177 0 0 1-.177-.177zm2.646-.54c0-.102.08-.137.176-.077.097.06.177.144.177.187 0 .042-.08.077-.177.077-.097 0-.176-.084-.176-.186zm1.147.011c-.06-.097.014-.176.166-.176a.27.27 0 0 0 .275-.265c0-.145.082-.265.182-.265.124 0 .126.107.006.33-.097.181-.126.38-.065.441.062.061-.016.111-.172.111-.156 0-.332-.079-.392-.176zm-1.573-.682c-.076-.123-.09-.271-.033-.33.158-.157.33.075.245.33-.06.18-.101.18-.212 0zm.888-.332c.167-.693.244-.716.244-.074 0 .308-.081.559-.18.559-.107 0-.133-.197-.064-.485zm-1.432-.22c.06-.098.188-.177.285-.177.097 0 .128.08.068.176-.06.097-.189.177-.286.177-.097 0-.127-.08-.067-.177zm2.991-.012c-.064-.104-.074-.23-.022-.283.126-.126.47.097.47.305 0 .225-.304.21-.448-.022zm1.242.011a.328.328 0 0 1 .049-.383c.117-.118.219-.108.304.03a.328.328 0 0 1-.048.384c-.118.118-.22.107-.305-.03zm-4.678-.621c-.122-.148-.192-.287-.153-.309.81-.467.862-.48.862-.232 0 .138-.099.291-.22.34-.17.068-.167.092.01.103.127.008.182.093.122.19-.154.25-.362.22-.62-.092zm1.239.086c-.23-.153-.219-.212.078-.439.392-.299.694-.11.526.327-.13.339-.236.358-.604.112zm1.587-.092c0-.458.438-1.667.586-1.617.318.106.337 1.12.026 1.43-.279.28-.612.381-.612.187zm.98-.063a.197.197 0 0 1 .063-.27.197.197 0 0 1 .27.063.197.197 0 0 1-.063.27.197.197 0 0 1-.27-.063zm-4.331-.72c0-.098.084-.177.187-.177.102 0 .137.08.077.176-.06.097-.144.177-.186.177-.043 0-.078-.08-.078-.177zm1.142-.537c-.169-.273.13-.54.411-.367.182.112.176.183-.03.354-.19.158-.29.161-.38.013zm1.327-.34c0-.22.626-.556.77-.413.153.154-.234.584-.527.584-.133 0-.243-.077-.243-.17zm1.653-.571c-.144-.234.265-.487.794-.49.338-.002.38.044.215.242-.27.326-.87.473-1.009.248zm-5.666-.165c-.12-.122-.22-.325-.22-.452 0-.126-.08-.229-.177-.229a.177.177 0 0 1-.176-.176c0-.264.456-.213.698.078.116.14.185.423.153.629-.046.3-.1.33-.278.15zm3.484.038c0-.219 1.06-.739 1.256-.617.27.166.17.364-.294.575-.541.247-.962.265-.962.042zm-1.268-.31c.128-.051.28-.045.338.014.059.058-.045.1-.231.092-.206-.008-.247-.05-.107-.106zm-1.161-.618c.088-.264.489-.41.489-.177 0 .094-.126.22-.28.28-.171.065-.252.026-.209-.103zm2.017-.085c-.22-.221-.117-.45.157-.344.157.06.227.03.166-.07-.06-.095.055-.174.255-.174.41 0 .465.18.152.494-.235.234-.549.275-.73.094zm32.365-21.93c-.063-.05-.274-.406-.468-.794-.469-.936-1.667-2.123-2.501-2.476-1.458-.618-5.55-.51-10.904.29-1.261.187-2.4.38-2.532.427-.131.047-.766.197-1.41.333-.646.137-1.312.303-1.482.37-.172.069-.309.043-.309-.057 5.782-2.704 30.011-6.667 54.481-6.447 16.581.148 33.309 2.145 44.344 8.03-.157.042-5.662.234-35.63.23-19.769-.004-37.637.036-39.709.088-2.071.051-3.817.054-3.88.005z" transform="matrix(.99837 0 0 1.00074 2.163 -571.494)"/><g aria-label="URBAN" style="font-style:italic;font-size:19.484px;line-height:1.25;font-family:Calibri;-inkscape-font-specification:'Calibri, Italic';font-variant-ligatures:none;text-align:center;letter-spacing:.926042px;word-spacing:0;text-anchor:middle;fill:#000;fill-opacity:1;stroke-width:.264583"><path d="M75.461 329.998v-6.707q0-.857.38-1.285.39-.428 1.019-.428.656 0 1.037.428.39.428.39 1.285v6.859q0 1.17.257 1.96.266.78.932 1.218.666.428 1.865.428 1.655 0 2.34-.876.685-.884.685-2.673v-6.916q0-.866.38-1.285.381-.428 1.019-.428.637 0 1.027.428.4.419.4 1.285v6.707q0 1.636-.324 2.73-.314 1.094-1.199 1.922-.76.704-1.77 1.027-1.008.324-2.359.324-1.607 0-2.768-.343-1.16-.352-1.893-1.075-.733-.732-1.075-1.864-.343-1.142-.343-2.721z" style="font-style:normal;font-family:'Arial Rounded MT Bold';-inkscape-font-specification:'Arial Rounded MT Bold, ';fill:#000;fill-opacity:1" transform="matrix(.99837 0 0 1.00074 -2.047 -305.025)"/><path d="M94.499 329.716h-.99v4.54q0 .897-.39 1.32-.39.425-1.017.425-.676 0-1.047-.444-.371-.443-.371-1.3v-10.874q0-.925.41-1.34.408-.414 1.322-.414h4.595q.951 0 1.626.086.676.077 1.218.328.657.28 1.16.8.505.52.762 1.215.266.684.266 1.455 0 1.581-.884 2.526-.876.944-2.664 1.34.751.404 1.436 1.195.685.79 1.218 1.687.542.887.837 1.61.305.713.305.983 0 .28-.181.559-.171.27-.476.424-.304.164-.704.164-.475 0-.799-.232-.323-.221-.561-.568-.229-.347-.628-1.022l-1.132-1.909q-.61-1.05-1.094-1.6-.476-.55-.97-.752-.495-.202-1.247-.202zm1.617-5.938H93.51v3.885h2.53q1.018 0 1.713-.174.694-.183 1.056-.607.37-.434.37-1.186 0-.588-.294-1.031-.295-.453-.818-.675-.495-.212-1.95-.212zM111.786 335.763h-4.262q-.923 0-1.323-.416-.39-.426-.39-1.345v-10.663q0-.938.4-1.345.409-.416 1.313-.416h4.519q.998 0 1.731.126.733.126 1.313.484.495.3.875.764.38.455.58 1.016.2.552.2 1.17 0 2.13-2.093 3.116 2.75.89 2.75 3.464 0 1.19-.6 2.149-.599.948-1.617 1.403-.637.27-1.465.387-.828.106-1.931.106zm-.21-6.299h-2.94v4.141h3.036q2.863 0 2.863-2.1 0-1.073-.742-1.557t-2.217-.484zm-2.94-5.728v3.667h2.588q1.056 0 1.627-.203.58-.203.885-.774.238-.407.238-.91 0-1.074-.752-1.422-.751-.358-2.293-.358z" style="font-style:normal;font-family:'Arial Rounded MT Bold';-inkscape-font-specification:'Arial Rounded MT Bold, ';fill:#000;fill-opacity:1;stroke-width:.264583" transform="matrix(.99837 0 0 1.00074 -2.047 -305.025)"/><path d="m129.701 334.184-.666-1.75h-5.67l-.666 1.788q-.39 1.046-.666 1.417-.276.362-.904.362-.532 0-.942-.39-.409-.39-.409-.885 0-.285.096-.59.095-.304.313-.847l3.568-9.057.362-.932q.218-.552.456-.913.248-.362.638-.58.4-.229.98-.229.59 0 .98.228.4.22.637.571.247.352.409.761.171.4.428 1.075l3.644 9q.428 1.028.428 1.494 0 .485-.41.894-.399.4-.97.4-.332 0-.57-.124-.238-.114-.4-.314-.162-.21-.352-.628l-.314-.751zm-5.594-3.872h4.167l-2.102-5.756zM139.305 323.272l5.432 8.22v-8.297q0-.808.343-1.208.352-.409.942-.409.609 0 .96.41.353.399.353 1.207v10.97q0 1.836-1.523 1.836-.38 0-.685-.114-.304-.105-.57-.343-.267-.238-.495-.552-.228-.323-.457-.656l-5.299-8.125v8.173q0 .799-.37 1.208-.372.409-.952.409-.6 0-.961-.41-.362-.418-.362-1.207v-10.76q0-.685.153-1.075.18-.429.599-.695.419-.276.904-.276.38 0 .647.124.276.123.475.333.21.21.419.542.219.333.447.695z" style="font-style:normal;font-family:'Arial Rounded MT Bold';-inkscape-font-specification:'Arial Rounded MT Bold, ';fill:#000;fill-opacity:1" transform="matrix(.99837 0 0 1.00074 -2.047 -305.025)"/><path style="opacity:1;fill:#000;fill-opacity:1;stroke-width:.799999;stroke-linecap:square;paint-order:fill markers stroke" d="M90.684 321.629h1.731v1.64h-1.731z" transform="matrix(.99837 0 0 1.00074 -2.047 -305.025)"/><path style="font-style:italic;font-size:19.484px;line-height:1.25;font-family:Calibri;-inkscape-font-specification:'Calibri, Italic';font-variant-ligatures:none;text-align:center;letter-spacing:.926042px;word-spacing:0;text-anchor:middle;fill:#000;fill-opacity:1;stroke-width:.799999;stroke-linecap:square;paint-order:fill markers stroke" d="M105.811 321.578h1.731v14.185h-1.731z" transform="matrix(.99837 0 0 1.00074 -2.047 -305.025)"/></g><g aria-label="CRUISE" style="font-style:italic;font-size:19.484px;line-height:1.25;font-family:Calibri;-inkscape-font-specification:'Calibri, Italic';font-variant-ligatures:none;text-align:center;letter-spacing:-.132292px;word-spacing:0;text-anchor:middle;fill:#000;fill-opacity:1;stroke-width:.264583"><path d="M87.59 349.897q0 .666-.333 1.446-.324.771-1.028 1.523-.704.742-1.798 1.208-1.094.466-2.55.466-1.103 0-2.007-.21-.904-.209-1.646-.646-.732-.447-1.35-1.17-.553-.657-.943-1.466-.39-.818-.59-1.74-.19-.923-.19-1.96 0-1.684.486-3.016.494-1.332 1.408-2.274.913-.951 2.14-1.446t2.616-.495q1.694 0 3.016.676 1.323.675 2.027 1.674.704.99.704 1.874 0 .486-.343.857-.342.37-.828.37-.542 0-.818-.256-.266-.257-.6-.885-.55-1.037-1.302-1.55-.743-.514-1.837-.514-1.74 0-2.778 1.322-1.027 1.322-1.027 3.758 0 1.627.457 2.711.456 1.075 1.293 1.608.838.533 1.96.533 1.218 0 2.055-.6.847-.608 1.275-1.779.18-.551.447-.894.267-.352.856-.352.505 0 .866.352.362.352.362.875z" style="font-style:normal;font-family:'Arial Rounded MT Bold';-inkscape-font-specification:'Arial Rounded MT Bold, ';fill:#000;fill-opacity:1" transform="matrix(.99837 0 0 1.00074 -2.047 -305.025)"/><path d="M93.793 348.233h-.989v4.556q0 .9-.39 1.325-.39.426-1.018.426-.675 0-1.046-.445t-.371-1.306v-10.911q0-.929.409-1.345.409-.416 1.322-.416h4.595q.951 0 1.627.087.675.078 1.218.33.656.28 1.16.802.505.522.761 1.219.267.687.267 1.46 0 1.587-.885 2.535-.875.948-2.664 1.344.752.407 1.437 1.2.685.793 1.218 1.693.542.89.837 1.615.304.716.304.987 0 .28-.18.56-.172.272-.476.426-.305.165-.704.165-.476 0-.8-.232-.323-.223-.56-.57-.23-.35-.629-1.026l-1.132-1.916q-.609-1.054-1.094-1.605-.476-.552-.97-.755-.495-.203-1.247-.203zm1.618-5.959h-2.607v3.899h2.53q1.019 0 1.713-.174.695-.184 1.056-.61.371-.435.371-1.19 0-.59-.295-1.035-.295-.454-.818-.677-.495-.213-1.95-.213z" style="font-style:normal;font-family:'Arial Rounded MT Bold';-inkscape-font-specification:'Arial Rounded MT Bold, ';fill:#000;fill-opacity:1;stroke-width:.264583" transform="matrix(.99837 0 0 1.00074 -2.047 -305.025)"/><path style="font-style:italic;font-size:19.484px;line-height:1.25;font-family:Calibri;-inkscape-font-specification:'Calibri, Italic';font-variant-ligatures:none;text-align:center;letter-spacing:.926042px;word-spacing:0;text-anchor:middle;fill:#000;fill-opacity:1;stroke-width:.799999;stroke-linecap:square;paint-order:fill markers stroke" d="M89.978 340.117h1.731v1.64h-1.731z" transform="matrix(.99837 0 0 1.00074 -2.047 -305.025)"/><path d="M104.21 348.537v-6.707q0-.856.366-1.285.376-.428.981-.428.633 0 1 .428.376.429.376 1.285v6.86q0 1.17.248 1.959.257.78.899 1.218.642.428 1.797.428 1.596 0 2.257-.875.66-.885.66-2.674v-6.916q0-.866.367-1.285.367-.428.981-.428.615 0 .99.428.386.419.386 1.285v6.707q0 1.636-.312 2.73-.303 1.094-1.156 1.922-.733.704-1.706 1.028-.972.323-2.274.323-1.55 0-2.67-.343-1.118-.352-1.824-1.075-.706-.732-1.037-1.864-.33-1.142-.33-2.721z" style="font-style:normal;font-family:'Arial Rounded MT Bold';-inkscape-font-specification:'Arial Rounded MT Bold, ';fill:#000;fill-opacity:1;stroke-width:.264583" transform="matrix(.99837 0 0 1.00074 -2.047 -305.025)"/><path d="M118.179 352.818V341.83q0-.857.39-1.285.39-.428 1.008-.428.638 0 1.028.428.4.419.4 1.285v10.988q0 .866-.4 1.294-.39.428-1.028.428-.609 0-1.008-.428-.39-.438-.39-1.294zM134.629 350.116q0 1.265-.657 2.274-.647 1.008-1.902 1.58-1.256.57-2.978.57-2.065 0-3.406-.78-.951-.561-1.55-1.494-.59-.942-.59-1.826 0-.514.351-.876.362-.37.914-.37.447 0 .751.285.314.285.533.846.266.666.57 1.114.315.447.876.742.561.285 1.475.285 1.256 0 2.036-.58.79-.59.79-1.465 0-.695-.429-1.123-.418-.438-1.094-.666-.666-.228-1.788-.485-1.504-.352-2.522-.818-1.008-.476-1.607-1.285-.59-.818-.59-2.026 0-1.151.628-2.046.628-.894 1.817-1.37 1.189-.485 2.797-.485 1.284 0 2.217.324.941.314 1.56.846.618.524.904 1.104.285.58.285 1.132 0 .504-.362.913-.352.4-.884.4-.486 0-.742-.238-.248-.247-.543-.799-.38-.79-.913-1.227-.533-.447-1.712-.447-1.094 0-1.77.485-.666.476-.666 1.151 0 .419.228.723.229.304.628.523.4.22.809.343.41.123 1.35.361 1.18.276 2.132.61.96.332 1.627.808.675.476 1.046 1.208.38.723.38 1.78z" style="font-style:normal;font-family:'Arial Rounded MT Bold';-inkscape-font-specification:'Arial Rounded MT Bold, ';fill:#000;fill-opacity:1" transform="matrix(.99837 0 0 1.00074 -2.047 -305.025)"/><path d="M146.396 342.333h-6.504v3.483h5.989q.66 0 .981.3.33.29.33.774 0 .484-.32.794-.32.3-.991.3h-5.989v4.035h6.727q.68 0 1.021.319.35.31.35.832 0 .503-.35.823-.34.31-1.02.31h-7.846q-.942 0-1.36-.417-.409-.416-.409-1.345v-10.663q0-.619.185-1.006.185-.397.574-.57.398-.185 1.01-.185h7.622q.69 0 1.02.31.34.3.34.793 0 .503-.34.813-.33.3-1.02.3z" style="font-style:normal;font-family:'Arial Rounded MT Bold';-inkscape-font-specification:'Arial Rounded MT Bold, ';fill:#000;fill-opacity:1;stroke-width:.264583" transform="matrix(.99837 0 0 1.00074 -2.047 -305.025)"/><path style="font-style:italic;font-size:19.484px;line-height:1.25;font-family:Calibri;-inkscape-font-specification:'Calibri, Italic';font-variant-ligatures:none;text-align:center;letter-spacing:.926042px;word-spacing:0;text-anchor:middle;fill:#000;fill-opacity:1;stroke-width:.799999;stroke-linecap:square;paint-order:fill markers stroke" d="M137.005 340.117h1.731v14.185h-1.731z" transform="matrix(.99837 0 0 1.00074 -2.047 -305.025)"/></g><g aria-label="SHIP" style="font-style:italic;font-size:19.484px;line-height:1.25;font-family:Calibri;-inkscape-font-specification:'Calibri, Italic';font-variant-ligatures:none;text-align:center;letter-spacing:7.9375px;word-spacing:0;text-anchor:middle;fill:#000;fill-opacity:1;stroke-width:.264583"><path d="M86.426 368.655q0 1.266-.657 2.274-.647 1.009-1.903 1.58-1.255.57-2.977.57-2.065 0-3.406-.78-.952-.561-1.55-1.494-.59-.941-.59-1.826 0-.514.351-.875.362-.372.914-.372.447 0 .751.286.314.285.533.847.266.666.57 1.113.315.447.876.742.561.285 1.475.285 1.255 0 2.035-.58.79-.59.79-1.465 0-.695-.428-1.123-.419-.438-1.094-.666-.666-.228-1.789-.485-1.503-.352-2.52-.818-1.01-.476-1.609-1.285-.59-.818-.59-2.026 0-1.151.628-2.045.628-.895 1.818-1.37 1.189-.486 2.797-.486 1.284 0 2.216.324.942.314 1.56.847.619.523.904 1.103.286.58.286 1.132 0 .505-.362.914-.352.4-.885.4-.485 0-.742-.239-.247-.247-.542-.799-.38-.79-.913-1.227-.533-.447-1.713-.447-1.094 0-1.77.485-.665.476-.665 1.151 0 .419.228.723.229.305.628.523.4.22.809.343.409.124 1.35.361 1.18.276 2.132.61.96.332 1.627.808.675.476 1.046 1.208.38.723.38 1.78zM99.605 360.369v3.996h6.098v-3.996q0-.856.381-1.284.39-.429 1.018-.429.637 0 1.027.429.4.418.4 1.284v10.988q0 .866-.4 1.294-.4.428-1.027.428-.637 0-1.018-.428-.38-.438-.38-1.294v-4.69h-6.099v4.69q0 .866-.4 1.294-.399.428-1.027.428-.637 0-1.018-.428-.38-.438-.38-1.294V360.37q0-.856.37-1.284.381-.429 1.028-.429.638 0 1.028.429.4.418.4 1.284zM121.47 371.357V360.37q0-.856.39-1.284.39-.429 1.01-.429.637 0 1.027.429.4.418.4 1.284v10.988q0 .866-.4 1.294-.39.428-1.028.428-.609 0-1.008-.428-.39-.438-.39-1.294z" style="font-style:normal;font-family:'Arial Rounded MT Bold';-inkscape-font-specification:'Arial Rounded MT Bold, ';fill:#000;fill-opacity:1" transform="matrix(.99837 0 0 1.00074 -2.047 -305.025)"/><path d="M142.628 367.343h-2.588v3.994q0 .857-.4 1.3-.4.442-1.008.442-.638 0-1.028-.433-.39-.443-.39-1.29V360.48q0-.943.428-1.347.429-.404 1.36-.404h3.626q1.607 0 2.473.25.856.24 1.475.799.628.558.951 1.366.324.809.324 1.82 0 2.155-1.313 3.272-1.313 1.107-3.91 1.107zm-.685-6.468h-1.903v4.312h1.903q.999 0 1.664-.212.676-.212 1.028-.693t.352-1.26q0-.934-.542-1.521-.61-.626-2.502-.626z" style="font-style:normal;font-family:'Arial Rounded MT Bold';-inkscape-font-specification:'Arial Rounded MT Bold, ';fill:#000;fill-opacity:1;stroke-width:.264583" transform="matrix(.99837 0 0 1.00074 -2.047 -305.025)"/><path style="font-style:italic;font-size:19.484px;line-height:1.25;font-family:Calibri;-inkscape-font-specification:'Calibri, Italic';font-variant-ligatures:none;text-align:center;letter-spacing:.926042px;word-spacing:0;text-anchor:middle;fill:#000;fill-opacity:1;stroke-width:.799999;stroke-linecap:square;paint-order:fill markers stroke" d="M137.214 358.729h1.731v1.64h-1.731z" transform="matrix(.99837 0 0 1.00074 -2.047 -305.025)"/></g><g aria-label="ANALYSIS" transform="matrix(2.10341 0 0 2.1084 -823.552 -1515.902)" style="font-size:3.83967px;line-height:1.3;font-family:'Arial Rounded MT Bold';-inkscape-font-specification:'Arial Rounded MT Bold, Normal';font-variant-ligatures:none;letter-spacing:0;word-spacing:0;white-space:pre;shape-inside:url(#rect12816-2);fill:#000;fill-opacity:1;stroke-width:.033227"><path d="m464.918 747.645-.131-.345h-1.118l-.13.353q-.078.206-.132.28-.055.07-.178.07-.105 0-.186-.077-.08-.076-.08-.174 0-.056.018-.116.02-.06.062-.167l.703-1.785.072-.184q.043-.108.09-.18.048-.07.125-.114.079-.045.193-.045.117 0 .193.045.08.043.126.113.049.069.08.15.034.078.085.211l.718 1.774q.084.202.084.294 0 .096-.08.177-.079.078-.191.078-.066 0-.113-.024-.047-.023-.079-.062-.031-.041-.069-.124l-.062-.148zm-1.102-.763h.82l-.414-1.134zM466.923 745.495l1.07 1.62v-1.635q0-.16.068-.238.07-.08.185-.08.12 0 .19.08.07.078.07.238v2.162q0 .361-.3.361-.076 0-.136-.022-.06-.02-.112-.068-.053-.046-.098-.108l-.09-.13-1.044-1.6v1.61q0 .157-.073.238-.073.08-.188.08-.118 0-.189-.08-.071-.083-.071-.238v-2.12q0-.136.03-.213.035-.084.118-.136.082-.055.178-.055.075 0 .128.025.054.024.093.065.041.041.083.107l.088.137zM471.099 747.645l-.131-.345h-1.118l-.131.353q-.077.206-.131.28-.055.07-.178.07-.105 0-.186-.077-.08-.076-.08-.174 0-.056.018-.116.019-.06.062-.167l.703-1.785.071-.184q.043-.108.09-.18.049-.07.126-.114.079-.045.193-.045.116 0 .193.045.079.043.126.113.048.069.08.15.034.078.085.211l.718 1.774q.084.202.084.294 0 .096-.08.177-.08.078-.192.078-.065 0-.112-.024-.047-.023-.079-.062-.032-.041-.07-.124l-.061-.148zm-1.103-.763h.822l-.415-1.134zM472.924 745.499v2h1.128q.135 0 .207.066.073.065.073.165t-.072.165q-.07.062-.208.062h-1.344q-.182 0-.262-.081-.08-.08-.08-.26v-2.117q0-.17.076-.253.077-.085.2-.085.126 0 .203.085.079.082.079.253zM475.103 747.664v-.872l-.671-1.04q-.088-.14-.126-.22-.035-.078-.035-.137 0-.095.073-.164.075-.07.183-.07.115 0 .173.066.06.063.178.257l.514.834.519-.834.079-.13q.032-.052.07-.097.038-.047.085-.071.047-.025.115-.025.105 0 .174.07.071.067.071.157 0 .073-.035.146-.036.073-.122.203l-.688 1.055v.872q0 .17-.079.255-.079.084-.2.084-.124 0-.201-.082-.077-.084-.077-.257zM479.159 747.132q0 .249-.13.448-.127.198-.374.31-.248.113-.587.113-.407 0-.671-.153-.188-.11-.306-.295-.116-.185-.116-.36 0-.1.07-.172.07-.073.18-.073.087 0 .147.056.062.056.105.167.053.131.113.22.062.087.172.145.11.057.29.057.248 0 .402-.115.156-.116.156-.288 0-.137-.085-.222-.082-.086-.215-.13-.132-.046-.353-.097-.296-.069-.497-.16-.198-.094-.317-.254-.116-.161-.116-.4 0-.226.124-.402.124-.177.358-.27.234-.096.551-.096.253 0 .437.064.186.062.308.167.121.103.178.217.056.115.056.223 0 .1-.071.18-.07.079-.175.079-.095 0-.146-.047-.049-.049-.107-.157-.075-.156-.18-.242-.105-.088-.337-.088-.216 0-.349.095-.131.094-.131.227 0 .083.045.143.045.06.123.103.08.043.16.067.08.025.266.071.233.055.42.12.19.066.32.16.134.093.207.238.075.142.075.35zM479.93 747.664V745.5q0-.17.077-.253.077-.085.199-.085.125 0 .202.085.079.082.079.253v2.165q0 .17-.079.255-.077.084-.202.084-.12 0-.199-.084-.077-.086-.077-.255zM483.474 747.132q0 .249-.13.448-.127.198-.374.31-.248.113-.587.113-.407 0-.671-.153-.188-.11-.306-.295-.116-.185-.116-.36 0-.1.07-.172.07-.073.18-.073.088 0 .148.056.061.056.105.167.052.131.112.22.062.087.173.145.11.057.29.057.248 0 .401-.115.156-.116.156-.288 0-.137-.084-.222-.083-.086-.216-.13-.131-.046-.353-.097-.296-.069-.496-.16-.2-.094-.317-.254-.116-.161-.116-.4 0-.226.123-.402.124-.177.358-.27.235-.096.552-.096.253 0 .436.064.186.062.308.167.122.103.178.217.056.115.056.223 0 .1-.071.18-.07.079-.174.079-.096 0-.147-.047-.048-.049-.106-.157-.075-.156-.18-.242-.105-.088-.338-.088-.216 0-.349.095-.13.094-.13.227 0 .083.044.143.045.06.124.103t.16.067q.08.025.265.071.233.055.42.12.19.066.321.16.133.093.206.238.075.142.075.35z" style="letter-spacing:.276281px;fill:#000;fill-opacity:1"/><path style="opacity:1;fill:#000;fill-opacity:1;stroke-width:.379713;stroke-linecap:square;paint-order:fill markers stroke" d="M472.367 747.687h.386v.27h-.386z"/></g><g aria-label="SOLUTIONS" transform="matrix(1.91959 0 0 2.1084 -738.33 -1504.818)" style="font-size:3.83967px;line-height:1.3;font-family:'Arial Rounded MT Bold';-inkscape-font-specification:'Arial Rounded MT Bold, Normal';font-variant-ligatures:none;letter-spacing:0;word-spacing:0;white-space:pre;shape-inside:url(#rect12816-2-5);fill:#000;fill-opacity:1;stroke-width:.0347816"><path d="M465.248 747.132q0 .249-.13.448-.127.198-.374.31-.248.113-.587.113-.407 0-.671-.153-.188-.11-.306-.295-.116-.185-.116-.36 0-.1.07-.172.07-.073.18-.073.087 0 .147.056.062.056.105.167.053.131.113.22.062.087.172.145.11.057.29.057.248 0 .402-.115.156-.116.156-.288 0-.137-.085-.222-.082-.086-.215-.13-.132-.046-.353-.097-.296-.069-.497-.16-.198-.094-.317-.254-.116-.161-.116-.4 0-.226.124-.402.124-.177.358-.27.234-.096.551-.096.253 0 .437.064.186.062.308.167.121.103.178.217.056.115.056.223 0 .1-.071.18-.07.079-.175.079-.095 0-.146-.047-.049-.049-.107-.157-.075-.156-.18-.242-.105-.088-.337-.088-.216 0-.349.095-.131.094-.131.227 0 .083.045.143.045.06.124.103.078.043.159.067.08.025.266.071.233.055.42.12.19.066.32.16.134.093.207.238.075.142.075.35zM466.93 745.161q.427 0 .733.175.307.172.465.493.157.318.157.75 0 .318-.086.579-.086.26-.259.452-.172.19-.423.292-.252.101-.576.101-.323 0-.578-.103-.254-.105-.425-.294-.17-.19-.259-.456-.086-.266-.086-.575 0-.317.09-.581.092-.265.264-.45.173-.186.42-.283.248-.1.563-.1zm.79 1.414q0-.302-.097-.523-.097-.222-.279-.334-.18-.114-.414-.114-.167 0-.31.063-.14.062-.243.182-.102.12-.162.308-.058.185-.058.418 0 .234.058.423.06.19.167.315.109.124.248.186.14.062.307.062.214 0 .392-.107.18-.107.285-.33.107-.223.107-.55zM469.307 745.499v2h1.129q.135 0 .206.066.073.065.073.165t-.071.165q-.072.062-.208.062h-1.345q-.181 0-.262-.081-.079-.08-.079-.26v-2.117q0-.17.075-.253.077-.085.2-.085.126 0 .203.085.079.082.079.253z" style="fill:#000;fill-opacity:1"/><path style="font-size:3.83967px;line-height:1.3;font-family:'Arial Rounded MT Bold';-inkscape-font-specification:'Arial Rounded MT Bold, Normal';font-variant-ligatures:none;letter-spacing:0;word-spacing:0;white-space:pre;shape-inside:url(#rect12816-2);fill:#000;fill-opacity:1;stroke-width:.397478;stroke-linecap:square;paint-order:fill markers stroke" d="M468.75 747.675h.341v.281h-.341z"/><path d="M470.893 746.82V745.5q0-.17.075-.253.077-.085.2-.085.13 0 .205.085.077.084.077.253v1.351q0 .231.05.387.053.153.184.24.131.084.368.084.326 0 .46-.173.136-.174.136-.526v-1.363q0-.171.075-.253.075-.085.2-.085.126 0 .203.085.079.082.079.253v1.321q0 .323-.064.538-.062.216-.236.38-.15.138-.349.202-.199.063-.465.063-.317 0-.545-.067-.23-.07-.374-.212-.144-.144-.211-.367-.068-.225-.068-.537zM475.591 745.667h-.607v1.997q0 .173-.077.257-.077.082-.199.082-.123 0-.202-.084-.077-.084-.077-.255v-1.997h-.608q-.142 0-.211-.062-.07-.063-.07-.166 0-.107.072-.17.073-.061.21-.061h1.77q.144 0 .213.064.071.063.071.166 0 .104-.07.167-.072.062-.215.062zM476.229 747.664V745.5q0-.17.077-.253.077-.085.198-.085.126 0 .203.085.079.082.079.253v2.165q0 .17-.079.255-.077.084-.203.084-.12 0-.198-.084-.077-.086-.077-.255zM478.617 745.161q.428 0 .733.175.308.172.465.493.158.318.158.75 0 .318-.086.579-.086.26-.259.452-.173.19-.424.292-.251.101-.575.101-.323 0-.578-.103-.255-.105-.425-.294-.171-.19-.26-.456-.085-.266-.085-.575 0-.317.09-.581.092-.265.264-.45.173-.186.42-.283.248-.1.562-.1zm.792 1.414q0-.302-.098-.523-.097-.222-.28-.334-.18-.114-.414-.114-.166 0-.309.063-.14.062-.244.182-.1.12-.16.308-.059.185-.059.418 0 .234.058.423.06.19.167.315.109.124.247.186.141.062.308.062.214 0 .392-.107.18-.107.285-.33.107-.223.107-.55zM481.175 745.495l1.07 1.62v-1.635q0-.16.068-.238.07-.08.185-.08.12 0 .19.08.07.078.07.238v2.162q0 .361-.3.361-.076 0-.136-.022-.06-.02-.112-.068-.053-.046-.098-.108l-.09-.13-1.044-1.6v1.61q0 .157-.073.238-.073.08-.188.08-.118 0-.19-.08-.07-.083-.07-.238v-2.12q0-.136.03-.213.035-.084.118-.136.082-.055.178-.055.075 0 .127.025.055.024.094.065.041.041.083.107l.088.137zM485.455 747.132q0 .249-.13.448-.127.198-.374.31-.248.113-.587.113-.407 0-.671-.153-.188-.11-.306-.295-.116-.185-.116-.36 0-.1.07-.172.07-.073.18-.073.087 0 .147.056.062.056.105.167.053.131.113.22.062.087.172.145.11.057.29.057.248 0 .402-.115.156-.116.156-.288 0-.137-.085-.222-.082-.086-.215-.13-.132-.046-.353-.097-.296-.069-.497-.16-.198-.094-.317-.254-.116-.161-.116-.4 0-.226.124-.402.124-.177.358-.27.234-.096.551-.096.253 0 .437.064.186.062.308.167.121.103.178.217.056.115.056.223 0 .1-.071.18-.07.079-.175.079-.095 0-.146-.047-.049-.049-.107-.157-.075-.156-.18-.242-.105-.088-.337-.088-.216 0-.349.095-.131.094-.131.227 0 .083.045.143.045.06.124.103.078.043.159.067.08.025.266.071.233.055.42.12.19.066.32.16.134.093.207.238.075.142.075.35z" style="fill:#000;fill-opacity:1"/></g><path style="fill:#000;fill-opacity:1;stroke-width:.799999;stroke-linecap:square;paint-order:fill markers stroke" d="M189.786 612.19a2.367 2.367 0 0 0-2.367 2.367 2.367 2.367 0 0 0 2.367 2.367 2.367 2.367 0 0 0 2.367-2.367 2.367 2.367 0 0 0-2.367-2.367zm0 .462a1.905 1.905 0 0 1 1.905 1.905 1.905 1.905 0 0 1-1.905 1.904 1.905 1.905 0 0 1-1.905-1.904 1.905 1.905 0 0 1 1.905-1.905z" transform="matrix(.99837 0 0 1.00074 2.163 -571.494)"/><g style="font-size:3.34591px;line-height:1.25;font-family:'Arial Rounded MT Bold';-inkscape-font-specification:'Arial Rounded MT Bold, Normal';font-variant-ligatures:none;text-align:center;letter-spacing:0;word-spacing:0;text-anchor:middle;fill:#000;fill-opacity:1;stroke-width:.264583"><path d="M173.096 388.59h-.17v.77c0 .1-.022.175-.067.223a.228.228 0 0 1-.175.072.223.223 0 0 1-.18-.075c-.042-.05-.063-.124-.063-.22v-2.137l1.086-.004c.11 0 .202.005.28.015a.695.695 0 0 1 .408.19.666.666 0 0 1 .176.453c0 .179-.05.321-.152.428-.1.107-.252.183-.457.227a.887.887 0 0 1 .247.203c.078.09.148.185.209.286.062.1.11.19.144.273.035.08.052.136.052.166 0 .032-.01.063-.031.095a.202.202 0 0 1-.082.072.254.254 0 0 1-.12.028.232.232 0 0 1-.138-.04.371.371 0 0 1-.096-.096 4.615 4.615 0 0 1-.108-.173l-.195-.324a1.736 1.736 0 0 0-.187-.27.456.456 0 0 0-.167-.128.575.575 0 0 0-.214-.035zm.278-1.006h-.448v.658h.435c.116 0 .214-.01.294-.03.08-.02.14-.054.18-.102a.296.296 0 0 0 .065-.201.305.305 0 0 0-.192-.29c-.056-.023-.168-.035-.334-.035z" style="fill:#000;fill-opacity:1" transform="matrix(.99837 0 0 1.00074 -21.858 -370.202)" aria-label="R"/></g><g style="font-size:4.56936px;line-height:1.25;font-family:'Arial Rounded MT Bold';-inkscape-font-specification:'Arial Rounded MT Bold, Normal';font-variant-ligatures:none;text-align:center;letter-spacing:0;word-spacing:0;text-anchor:middle;fill:#000;fill-opacity:1;stroke-width:.264583"><path d="M189.827 411.412q0 .114-.069.243-.067.13-.207.248-.139.116-.35.188-.213.07-.478.07-.565 0-.882-.327-.316-.33-.316-.884 0-.374.145-.662.145-.288.42-.444.274-.159.655-.159.237 0 .433.07.198.069.335.178.138.11.21.234.073.123.073.23 0 .11-.083.185-.08.076-.196.076-.076 0-.127-.038-.05-.04-.112-.127-.111-.17-.234-.254-.12-.085-.308-.085-.27 0-.435.212-.165.21-.165.576 0 .171.042.316.043.143.123.246.08.1.194.154.114.051.25.051.183 0 .312-.085.132-.084.233-.258.055-.103.12-.161.065-.058.158-.058.112 0 .186.085.073.084.073.18z" style="fill:#000;fill-opacity:1" transform="matrix(.99837 0 0 1.00074 3.272 -367.71)" aria-label="c"/></g><path style="fill:#000;fill-opacity:1;stroke-width:.799999;stroke-linecap:square;paint-order:fill markers stroke" d="M149.377 587.214a2.367 2.367 0 0 0-2.368 2.367 2.367 2.367 0 0 0 2.368 2.367 2.367 2.367 0 0 0 2.367-2.367 2.367 2.367 0 0 0-2.367-2.367zm0 .462a1.905 1.905 0 0 1 1.904 1.905 1.905 1.905 0 0 1-1.904 1.904 1.905 1.905 0 0 1-1.905-1.904 1.905 1.905 0 0 1 1.905-1.905z" transform="matrix(.99837 0 0 1.00074 2.163 -571.494)"/></svg>