<svg width="149" height="300" viewBox="0 0 39.423 79.375" xml:space="preserve" xmlns="http://www.w3.org/2000/svg"><path style="opacity:1;fill:#d4c0a2;fill-opacity:1;stroke:none;stroke-width:1.03624;stroke-linecap:square;stroke-opacity:1;paint-order:fill markers stroke" d="m18.456 14.686-2.136 1.749V56.124c0 1.762 1.52 2.823 2.867 2.823h6.168c1.327 0 2.865-1.05 2.865-2.805V16.435h-.002l.002-.001-2.135-1.748-1.929 1.579-1.886-1.545-1.886 1.545zm0 1.612 1.338 1.095v28.334h-2.227V17.026zm7.629 0 .887.726v28.703h-2.226V17.395zm-3.815.035 1.228 1.006v28.388h-2.457V17.339zm-4.703 35.631h9.405v4.117c0 .892-.718 1.618-1.626 1.618h-6.175c-.85 0-1.604-.676-1.604-1.63z"/><g style="opacity:1;fill:#d4c0a2;fill-opacity:1" transform="translate(0 .562)"><circle style="opacity:1;fill:#d4c0a2;fill-opacity:1;stroke:none;stroke-width:.256898;stroke-linecap:square;stroke-opacity:1;paint-order:fill markers stroke" cx="35.935" cy="39.73" r="2.24"/><circle style="fill:#d4c0a2;fill-opacity:1;stroke:none;stroke-width:.29738;stroke-linecap:square;stroke-opacity:1;paint-order:fill markers stroke" cx="33.625" cy="32.86" r="3.072"/><path style="opacity:1;fill:#d4c0a2;fill-opacity:1;stroke:none;stroke-width:.322112;stroke-linecap:square;paint-order:fill markers stroke" d="M15.072 24.923a7.246 7.246 0 0 1-5.537 2.6 7.14 7.14 0 1 1 5.537-11.65z"/><path style="fill:#d4c0a2;fill-opacity:1;stroke:none;stroke-width:.385628;stroke-linecap:square;stroke-opacity:1;paint-order:fill markers stroke" d="M-19.083 29.467a5.118 5.17 0 0 1-2.559 4.478 5.118 5.17 0 0 1-5.118 0 5.118 5.17 0 0 1-2.558-4.478h5.117z" transform="rotate(-90)"/><path style="opacity:1;fill:#d4c0a2;fill-opacity:1;stroke:none;stroke-width:.236212px;stroke-linecap:butt;stroke-linejoin:miter;stroke-opacity:1" d="M11.06 29.753c-11.193 8.158 2.628 16.4.466 22.526-3.416 9.682-9.381 10.3-8.593 19.191.445 5.01 4.52 7.852 10.515 4.779 9.32-4.779 18.337-13.101 19.948-27.341.62-5.482-1.097-10.266-3.919-13.863l-.008 20.472c0 2.355-1.825 4.118-4.116 4.118l-6.193-.003c-1.846 0-4.088-1.546-4.088-4.03l.002-27.434c-1.463.204-2.83.72-4.015 1.585z"/></g><path style="opacity:1;fill:#d4c0a2;fill-opacity:1;stroke-width:.663343;stroke-linecap:square;paint-order:fill markers stroke" d="m22.271 1.248-.67 1.71-5.281 13.477 1.162.455 2.84-7.25a9.274 9.274 0 0 0 3.897 0l2.84 7.249 1.161-.455-5.28-13.477z"/></svg>