<?xml version="1.0" encoding="UTF-8" standalone="no"?>
<svg
   width="149"
   height="300"
   viewBox="0 0 39.4229 79.374893"
   xml:space="preserve"
   version="1.1"
   id="svg25"
   sodipodi:docname="ufn-logo.svg"
   inkscape:version="1.3 (0e150ed6c4, 2023-07-21)"
   xmlns:inkscape="http://www.inkscape.org/namespaces/inkscape"
   xmlns:sodipodi="http://sodipodi.sourceforge.net/DTD/sodipodi-0.dtd"
   xmlns="http://www.w3.org/2000/svg"
   xmlns:svg="http://www.w3.org/2000/svg"><defs
     id="defs25" /><sodipodi:namedview
     id="namedview25"
     pagecolor="#ffffff"
     bordercolor="#666666"
     borderopacity="1.0"
     inkscape:showpageshadow="2"
     inkscape:pageopacity="0.0"
     inkscape:pagecheckerboard="0"
     inkscape:deskcolor="#d1d1d1"
     inkscape:zoom="2"
     inkscape:cx="83.75"
     inkscape:cy="158.25"
     inkscape:window-width="1920"
     inkscape:window-height="1017"
     inkscape:window-x="1912"
     inkscape:window-y="-8"
     inkscape:window-maximized="1"
     inkscape:current-layer="svg25" /><path
     id="rect33-9-1-1"
     style="opacity:1;fill:#000000;fill-opacity:1;stroke:none;stroke-width:1.03624;stroke-linecap:square;stroke-opacity:1;paint-order:fill markers stroke"
     d="m 18.456222,14.685545 -2.136302,1.749246 v 29.291726 1.247468 3.742921 1.247468 4.159949 c 0,1.761195 1.520675,2.822564 2.867006,2.822564 h 6.167576 c 1.327648,0 2.865456,-1.049891 2.865456,-2.804994 V 51.964374 50.716906 46.973985 45.726517 16.434791 h -0.0021 l 0.0021,-0.001 -2.135268,-1.748213 -1.928563,1.579231 -1.886188,-1.544607 -1.885671,1.544607 z m 0,1.612304 1.337384,1.095539 V 45.726517 H 17.567388 V 17.025969 Z m 7.628468,0 0.887283,0.72657 V 45.726517 H 24.745755 V 17.394938 Z m -3.814751,0.03514 1.228348,1.005622 V 45.726517 H 21.041074 V 17.339128 Z m -4.702551,35.631385 h 9.404585 v 4.116541 c 0,0.891996 -0.718356,1.618505 -1.625739,1.618505 h -6.175328 c -0.849208,0 -1.603518,-0.676371 -1.603518,-1.63039 z"
     sodipodi:nodetypes="ccccccssssccccccccccccccccccccccccccccccccssssc" /><g
     id="g34"
     style="opacity:1"
     transform="translate(2.1491095e-4,0.5623895)"><circle
       style="opacity:1;fill:#000000;fill-opacity:1;stroke:none;stroke-width:0.256898;stroke-linecap:square;stroke-opacity:1;paint-order:fill markers stroke"
       id="path32-7"
       cx="35.935482"
       cy="39.729664"
       r="2.2395647" /><circle
       style="fill:#000000;fill-opacity:1;stroke:none;stroke-width:0.29738;stroke-linecap:square;stroke-opacity:1;paint-order:fill markers stroke"
       id="path32-7-9"
       cx="33.624557"
       cy="32.859577"
       r="3.071599" /><path
       id="path32-1"
       style="opacity:1;fill:#000000;fill-opacity:1;stroke:none;stroke-width:0.322112;stroke-linecap:square;paint-order:fill markers stroke"
       d="m 15.072086,24.923185 c -1.309773,1.572724 -3.330188,2.599018 -5.5368815,2.599018 -3.9434805,0 -7.1403054,-3.196824 -7.1403076,-7.140304 0,-3.943482 3.1968248,-7.140307 7.1403076,-7.140307 2.2335485,0 4.2275715,1.025534 5.5368815,2.631414 z"
       sodipodi:nodetypes="cssscc" /><path
       style="fill:#000000;fill-opacity:1;stroke:none;stroke-width:0.385628;stroke-linecap:square;stroke-opacity:1;paint-order:fill markers stroke"
       id="path32-7-9-0"
       sodipodi:type="arc"
       sodipodi:cx="-24.200722"
       sodipodi:cy="29.467384"
       sodipodi:rx="5.1176429"
       sodipodi:ry="5.170022"
       sodipodi:start="0"
       sodipodi:end="3.1415927"
       sodipodi:arc-type="slice"
       d="m -19.083079,29.467384 a 5.1176429,5.170022 0 0 1 -2.558821,4.477371 5.1176429,5.170022 0 0 1 -5.117643,0 5.1176429,5.170022 0 0 1 -2.558822,-4.477371 h 5.117643 z"
       transform="rotate(-90)" /><path
       style="opacity:1;fill:#000000;fill-opacity:1;stroke:none;stroke-width:0.236212px;stroke-linecap:butt;stroke-linejoin:miter;stroke-opacity:1"
       d="m 11.059296,29.752725 c -11.19211823,8.158618 2.628637,16.399907 0.467188,22.525841 -3.4161525,9.681995 -9.3814875,10.301006 -8.5930855,19.191427 0.444363,5.010848 4.5203277,7.852502 10.5150225,4.778611 C 22.767657,71.469993 31.784509,63.147811 33.396293,48.90754 34.016674,43.426412 32.298602,38.642325 29.477197,35.045113 l -0.0086,20.471862 c 0,2.354903 -1.824559,4.118113 -4.115508,4.118113 l -6.192711,-0.0028 c -1.846001,0 -4.088221,-1.546565 -4.088103,-4.029595 l 0.0013,-27.434244 c -1.462134,0.203511 -2.828969,0.720199 -4.014295,1.584256 z"
       id="path33"
       sodipodi:nodetypes="sssssccccscss" /></g><path
     id="rect33-9-1-2"
     style="opacity:1;fill:#000000;fill-opacity:1;stroke-width:0.663343;stroke-linecap:square;paint-order:fill markers stroke"
     inkscape:transform-center-x="3.7850679"
     inkscape:transform-center-y="-7.9520379"
     d="m 22.270973,1.2476183 -0.670244,1.709455 10e-7,5.164e-4 -5.28081,13.4772023 1.161685,0.455269 2.840651,-7.2496804 c 0.628318,0.1348902 1.280103,0.2061983 1.948716,0.2061884 0.668221,1.04e-5 1.319705,-0.071501 1.947683,-0.2061889 l 2.839618,7.2486479 1.161685,-0.45527 -5.27926,-13.4766848 10e-7,-5.168e-4 z"
     sodipodi:nodetypes="ccccccccccccc" /></svg>
