<svg width="50" height="50" viewBox="0 0 13.229 13.229" xmlns="http://www.w3.org/2000/svg"><path style="opacity:1;fill:#02187b;fill-opacity:1;stroke-width:.393333;stroke-linecap:square" d="M3.706 195.087c-.917 0-1.656.739-1.656 1.656v9.917c0 .918.739 1.656 1.656 1.656h9.917c.918 0 1.656-.738 1.656-1.656v-9.917c0-.917-.738-1.656-1.656-1.656H3.706zm1.003 3.207h7.911l-3.955 2.9-3.956-2.9zm-.542.616.818.6 3.438 2.521a.409.409 0 0 0 .484 0l3.438-2.52.818-.6v5.79a.409.409 0 0 1-.41.408H4.577a.409.409 0 0 1-.41-.408v-5.79z" transform="translate(-2.05 -195.087)"/></svg>