<svg width="50" height="50" viewBox="0 0 13.229 13.229" xmlns="http://www.w3.org/2000/svg"><path style="opacity:1;fill:#02187b;fill-opacity:1;stroke-width:.393333;stroke-linecap:square" d="M3.706 195.087c-.917 0-1.656.739-1.656 1.656v9.917c0 .918.739 1.656 1.656 1.656h9.917c.918 0 1.656-.738 1.656-1.656v-9.917c0-.917-.738-1.656-1.656-1.656H3.706zm4.958 2.227h.001a4.498 4.498 0 0 1 4.498 4.498 4.48 4.48 0 0 1-3.087 4.262c-.232.045-.31-.096-.31-.213 0-.146.005-.631.005-1.233 0-.42-.146-.697-.303-.831 1-.11 2.052-.491 2.052-2.219a1.75 1.75 0 0 0-.46-1.208c.044-.113.197-.571-.045-1.19 0 0-.376-.12-1.232.46-.36-.099-.742-.15-1.124-.152a4.34 4.34 0 0 0-1.125.153c-.86-.582-1.237-.462-1.237-.462-.242.62-.09 1.078-.04 1.191a1.738 1.738 0 0 0-.462 1.208c0 1.724 1.05 2.11 2.049 2.223-.128.11-.245.31-.285.6-.257.116-.909.315-1.31-.373 0 0-.237-.432-.688-.463 0 0-.44-.006-.032.273 0 0 .295.139.5.657 0 0 .264.876 1.516.605l.004.764c0 .12-.082.26-.307.217a4.499 4.499 0 0 1 1.422-8.767z" transform="translate(-2.05 -195.087)"/></svg>