<svg width="50" height="50" viewBox="0 0 13.229 13.229" xmlns="http://www.w3.org/2000/svg"><path style="opacity:1;fill:#02187b;fill-opacity:1;stroke-width:.393333;stroke-linecap:square" d="M3.706 195.087c-.917 0-1.656.739-1.656 1.656v9.917c0 .918.739 1.656 1.656 1.656h9.917c.918 0 1.656-.738 1.656-1.656v-9.917c0-.917-.738-1.656-1.656-1.656H3.706zm7.323 2.602h1.004a.215.215 0 0 1 .215.215v2.482l1.498 1.234a.215.215 0 0 1 .03.303l-.457.556a.215.215 0 0 1-.303.028l-4.214-3.47a.218.218 0 0 0-.274 0l-4.214 3.47a.215.215 0 0 1-.303-.029l-.458-.555a.215.215 0 0 1 .03-.303l4.535-3.735a.86.86 0 0 1 1.092 0l1.605 1.32v-1.301a.215.215 0 0 1 .214-.215zm-2.364 2.034a.218.218 0 0 1 .137.048l3.303 2.718v2.939a.287.287 0 0 1-.287.286l-2.007-.006a.287.287 0 0 1-.287-.287v-1.714a.287.287 0 0 0-.286-.287H8.09a.287.287 0 0 0-.287.287v1.715a.287.287 0 0 1-.285.287l-2.008.006a.287.287 0 0 1-.286-.287v-2.937l3.303-2.72a.218.218 0 0 1 .137-.048z" transform="translate(-2.05 -195.087)"/></svg>