<svg width="50" height="50" viewBox="0 0 13.229 13.229" xmlns="http://www.w3.org/2000/svg"><path style="opacity:1;fill:#02187b;fill-opacity:1;stroke-width:.393333;stroke-linecap:square" d="M3.706 195.087c-.917 0-1.656.739-1.656 1.656v9.917c0 .918.739 1.656 1.656 1.656h9.917c.918 0 1.656-.738 1.656-1.656v-9.917c0-.917-.738-1.656-1.656-1.656H3.706zm1.749 2.117a1.228 1.228 0 1 1 0 2.455 1.228 1.228 0 0 1 0-2.455zm5.497 2.876c2.221 0 2.209 2.075 2.209 3.215v2.623a.28.28 0 0 1-.28.28h-1.387a.28.28 0 0 1-.28-.28v-2.542c0-.38.112-1.661-.99-1.661-.855 0-1.028.877-1.063 1.271v2.932a.28.28 0 0 1-.28.28H7.54a.279.279 0 0 1-.28-.28v-5.468c0-.154.126-.279.28-.279H8.88a.28.28 0 0 1 .28.28v.472c.317-.476.788-.843 1.791-.843zm-6.144.091h1.293c.168 0 .303.136.303.303v5.42a.303.303 0 0 1-.303.303H4.808a.303.303 0 0 1-.303-.303v-5.42c0-.167.135-.303.303-.303z" transform="translate(-2.05 -195.087)"/></svg>