<svg width="50" height="50" viewBox="0 0 13.229 13.229" xmlns="http://www.w3.org/2000/svg"><path style="opacity:1;fill:#02187b;fill-opacity:1;stroke-width:.393333;stroke-linecap:square" d="M3.706 195.087c-.917 0-1.656.739-1.656 1.656v9.917c0 .918.739 1.656 1.656 1.656h9.917c.918 0 1.656-.738 1.656-1.656v-9.917c0-.917-.738-1.656-1.656-1.656H3.706zm6.598 2.873c.474 0 .93.172 1.284.485a.251.251 0 0 0 .225.056c.333-.084.653-.216.949-.392.08-.047.176.03.148.119-.1.31-.276.59-.51.812.212-.05.42-.12.62-.209.092-.042.182.065.125.149-.214.32-.473.604-.77.846a.33.33 0 0 0-.124.257v.03c0 .62-.121 1.268-.349 1.877a5.495 5.495 0 0 1-1.024 1.715 5.048 5.048 0 0 1-1.672 1.253 5.395 5.395 0 0 1-2.286.485c-.94 0-1.864-.25-2.675-.721a.153.153 0 0 1-.073-.17.149.149 0 0 1 .145-.112h.224c.72 0 1.41-.21 2.005-.608a1.944 1.944 0 0 1-1.536-1.323.101.101 0 0 1 .116-.13 1.742 1.742 0 0 0 .368.03 1.942 1.942 0 0 1-1.133-1.788c.001-.077.084-.125.151-.088.139.077.288.135.442.171a1.937 1.937 0 0 1-.315-2.357.102.102 0 0 1 .166-.013 5.085 5.085 0 0 0 3.495 1.868h.007c.02 0 .04-.01.053-.025a.069.069 0 0 0 .018-.054 2.07 2.07 0 0 1 .046-.714 1.879 1.879 0 0 1 1.266-1.354c.203-.063.41-.095.614-.095z" transform="translate(-2.05 -195.087)"/></svg>